<?xml version="1.0" encoding="utf-8"?>
<!-- Generator: Adobe Illustrator 21.1.0, SVG Export Plug-In . SVG Version: 6.00 Build 0)  -->
<svg version="1.1" id="Layer_1" xmlns="http://www.w3.org/2000/svg" xmlns:xlink="http://www.w3.org/1999/xlink" x="0px" y="0px"
	 viewBox="0 0 1000 142" style="enable-background:new 0 0 1000 142;" xml:space="preserve">
<style type="text/css">
	.st0{fill:#FFFFFF;}
</style>
<g>
	<path class="st0" d="M116.9,53.8c-4.9,3.2-10.4,6.6-15.8,9.7c10.2,2.6,14.8,9.4,14.8,16.7c0,21-30.7,31.3-47.6,31.8l-8.3-13.2
		l-1.4,8.5c-6.6,1.9-15.5,3.5-23.2,4.6v-1.8c0-11.9,5.2-33.1,18.5-59.4L43.2,37c22.4-6.4,43.8-9.1,64.1-9.1c4,0,7.8,0.1,11.6,0.4
		c0.4,1.9,0.5,4.1,0.5,6.4C119.4,41.3,118.1,49,116.9,53.8z M97.3,48.8v-5.2c-6.5,0.6-13.3,1.6-19.8,2.9c-8.3,15-13.7,32.5-17,49.3
		c1,0,1.8,0.1,2.8,0.1c7.9,0,30.8-4,30.8-15.1c0-5.6-6.8-11.3-20.2-12.5L97.3,48.8z"/>
	<path class="st0" d="M212.5,33.2c-13.6,53.3-24.5,78.5-54.2,78.5c-15.1,0-27.2-8.8-27.2-23.5v-1.7l-5,0.2
		c3-18.1,7.9-36.5,13.4-52.3l24.7-6.8c-7.1,21.6-13,39.8-13,51c0,7.2,2.5,11.4,8.6,11.4c14.9,0,21.6-25.2,31.9-63.6L212.5,33.2z"/>
	<path class="st0" d="M281.4,48.3c-11.2,0-23.8,0.7-36.1,1.9l15.4,5.4c-8.9,20.3-16.7,43.8-18,64.2c-7.3,1.8-17.6,4-25.3,4.9
		c2.2-26.6,12.6-53.9,22.7-74c-7.9,1-15.6,2.2-22.7,3.5l-12.6-16.3c20-3.6,37.6-4.9,55.4-5.8l1.9-3.4c6.4-0.5,13.1-0.7,19.4-0.7
		c3.2,0,6.4,0,9.4,0.1c1.2,5,2.3,14.8,2.6,20.4C289.8,48.3,285.7,48.3,281.4,48.3z"/>
	<path class="st0" d="M429.6,32c-14.3,23.5-31.8,54.4-40.6,74c-7,3.1-15.2,5.2-23.8,7c-2.9-8.6-5.9-20-7.9-32.2
		c-8,10.9-15.8,23-21.5,32l-20.6-7.2c-1-8.4-1.3-19.7-1.3-31.2c0-14.4,0.7-29.2,2.4-39.6l24.4-8.4c-1.4,12.2-2.3,22-2.8,32.2
		l-4.2,1.9c-0.2,4-0.5,7.3-0.5,10.7c0,5.4,0.5,10.4,1.2,15.2c6.2-8.6,12.2-16.9,20.3-26.4c-0.2-3.4-0.5-6.7-0.5-10
		c6-4.7,13.8-9.5,21.4-13.3V43c0,15.6,1.4,30.6,4.6,43.3c7.1-17.6,17.9-42,27.5-59.8L429.6,32z"/>
	<path class="st0" d="M511.1,34.4c-8,23.2-16.9,52.6-21,73.8c-6.7,2-17.8,4-24.5,4.4c2.6-11.2,6.1-23.5,9.7-35.5
		c-20.5,2-31.4,6.2-38.2,31.8l-22,2.2c4.6-15.4,11.2-35.5,16.3-49.7l-4-3.2c3.2-8,8.2-18.8,12.4-26.8c7.2-1.6,18.5-3.1,25.2-3.4
		c-4.9,11.8-10.2,25.4-14.2,37.3c6.6-1,16.3-2,22.2-2.4l3.2,10.4c4.8-16.1,10.1-32.5,14.6-45.6L511.1,34.4z"/>
	<path class="st0" d="M561,113.3c-2.4-8.4-3.6-18.1-4.2-28c-21.1,2.4-30.4,11.6-36.2,27.7l-21.5-12.7c14.2-22.7,34.3-48.1,56.4-64.3
		l-0.2-7.1l22.8-1.7c2.4,20.6-1,64.6,6.2,74.8L561,113.3z M556.7,83.6c-0.4-5.3-0.4-10.7-0.4-16s0-10.3,0.1-15.2
		c-7.3,6.8-16.3,17.3-21,24.2c5.2-0.5,11.3-1,15.6-1.2L556.7,83.6z"/>
	<path class="st0" d="M658.4,48.3c-11.2,0-23.8,0.7-36.1,1.9l15.4,5.4c-8.9,20.3-16.7,43.8-18,64.2c-7.3,1.8-17.6,4-25.3,4.9
		c2.2-26.6,12.6-53.9,22.7-74c-7.9,1-15.6,2.2-22.7,3.5l-12.6-16.3c20-3.6,37.6-4.9,55.4-5.8l1.9-3.4c6.4-0.5,13.1-0.7,19.4-0.7
		c3.2,0,6.4,0,9.4,0.1c1.2,5,2.3,14.8,2.6,20.4C666.8,48.3,662.8,48.3,658.4,48.3z"/>
	<path class="st0" d="M721.4,48.5c-2.2,4.9-4.7,10.7-6.4,15.2c11.5-1.8,24.7-3.7,36-4.6l-11.9,17.6l-21.7,1l-4.8-7
		c-1.3,4.1-4.2,11.4-4.2,15.7c0,5.2,3.6,7,9,7c8,0,20-4.1,30.2-7.1l-2.4,16.6c-9.8,6-22.1,8.8-31.7,8.8c-17.4,0-26.9-9.4-26.9-23
		c0-9.8,7.6-27.7,11.6-36.5l-8.6-14.2c14.5-2.8,27-4.1,38.2-5.4l1.9-3.4c9.7-0.8,21-1.2,31-1.2c1.3,5.2,2.3,13.1,2.9,18.7
		C751.1,46.9,733.7,47.6,721.4,48.5z"/>
	<path class="st0" d="M815.3,109.6c-4.1-0.1-8.6-0.2-13.4-0.2c-15,0-32.3,0.8-46,2.3c4.1-16.1,9.4-33.5,14.9-49.1l-5.4-2.3
		c2.8-9.4,6.7-19.7,10.7-28.2c8.3-1.8,19.9-3.7,29-4.3c-8.9,21.8-17.3,46-22.8,64.3c11.5-1.3,26.4-2.2,38.9-2.4L815.3,109.6z"/>
	<path class="st0" d="M895.8,46.6c-4.8,0-41.6,0-41.6,8.2c0,1.3,1.3,2.8,3.8,2.9c17.3,1,27.8,9.1,27.8,19c0,5.8-3.6,12.1-11.8,17.8
		l1.7,4.6c-13.1,10.4-36.5,12.8-47.4,13.8l-11.4-20c6.4-0.1,46.9-2.8,46.9-13.2c0-2.6-4.3-4.6-10.9-5c-13.3-0.8-23.3-9.1-23.3-18.7
		c0-17.9,30.8-27.4,44.8-28.4l2,2.5l9.6-0.8L895.8,46.6z"/>
	<path class="st0" d="M931.7,48.5c-2.2,4.9-4.7,10.7-6.4,15.2c11.5-1.8,24.7-3.7,36-4.6l-11.9,17.6l-21.7,1l-4.8-7
		c-1.3,4.1-4.2,11.4-4.2,15.7c0,5.2,3.6,7,9,7c8,0,20-4.1,30.2-7.1l-2.4,16.6c-9.8,6-22.1,8.8-31.7,8.8c-17.4,0-26.9-9.4-26.9-23
		c0-9.8,7.6-27.7,11.6-36.5L900,38.1c14.5-2.8,27-4.1,38.2-5.4l1.9-3.4c9.7-0.8,21-1.2,31-1.2c1.3,5.2,2.3,13.1,2.9,18.7
		C961.3,46.9,943.9,47.6,931.7,48.5z"/>
</g>
</svg>
