<?xml version="1.0" encoding="utf-8"?>
<!-- Generator: Adobe Illustrator 21.1.0, SVG Export Plug-In . SVG Version: 6.00 Build 0)  -->
<svg version="1.1" id="Layer_1" xmlns="http://www.w3.org/2000/svg" xmlns:xlink="http://www.w3.org/1999/xlink" x="0px" y="0px"
	 viewBox="0 0 841.9 296.7" style="enable-background:new 0 0 841.9 296.7;" xml:space="preserve">
<style type="text/css">
	.st0{fill:#FDB714;}
	.st1{fill:#F58120;}
</style>
<g>
	<path class="st0" d="M362,148.6c0,0-8.2-17.9-8.2-31.8c0-16.8,22.1-24.1,39.3-40.3c9.8-9.2,9.5-19.1,9.5-19.1s1.9,18.2,1.4,23.2
		c-0.8,7.5-16.1,19.1-22.9,25.7C361.5,125.7,362,148.6,362,148.6z"/>
	<path class="st0" d="M408.1,26.7c0,0,14.2,6.8,25.1,20.7c12.9,16.5,12,34.1,12,34.1s3.5-0.4,5.6-4.4c2-3.8,3.2-9.2,3.2-9.2
		s0.8,5,0.8,7.6c0,2.5-0.2,6.9-0.2,6.9s1.8,0.8,2.2,11.5c1,27.1-36.4,61.2-56,62.2c-3.3,0.2-11.9-0.6-11.9-6.1
		c0-10.9,8.8-5.6,8.8-5.6s8.3-9.6-8.1-9.6c-5.1,0-12.3,6.7-12.3,15.8c0,13,12,32.5,12,32.5s-16.8-15.2-16.8-36.8
		c0-5.6,3.7-16.1,9.3-22.3c5.3-5.8,13.3-14.4,21.5-23.6c3.2-3.7,6.2-7.8,8-10.8c2.1-3.4,3.7-6.5,5.2-9.9c2.2-5.1,4.5-14.6,2.7-29.5
		C418,38.2,408.1,26.7,408.1,26.7z"/>
	<path class="st0" d="M467.1,94c0,0,0.6,9.6-3.6,19.7c-2.2,5.3-7,11.2-11.6,16.3c-2.7,3-10,8.7-19,14.3
		c-14.5,9.1-25.7,18.3-25.7,32.6c0,19.7,10,24.2,10,24.2s0.1-6.3,1.8-12.4c1.4-5.1,4.2-10,6.1-12.3c10.2-12.6,31.1-19.1,42.2-28.8
		c8.4-7.3,14-18.6,8.2-37.3C472.4,100.2,467.1,94,467.1,94z"/>
	<g>
		<path class="st1" d="M93.3,205.9H42c0,8.3,2.3,14.7,6.8,19.2c4,3.9,9.2,5.8,15.5,5.8c7.2,0,13.2-2.1,18.1-6.3l5.3,9.1
			c-1.9,1.9-4.9,3.6-9,5c-5,1.9-10.7,2.8-16.9,2.8c-8.9,0-16.5-3-22.8-9.1c-7-6.7-10.4-15.7-10.4-27c0-11.7,3.6-21.1,10.7-28.2
			c6.4-6.3,13.9-9.5,22.6-9.5c10.1,0,18.1,2.9,23.8,8.6c5.6,5.5,8.4,12.8,8.4,21.8C94.3,201,94,203.5,93.3,205.9z M62.7,178.4
			c-5.6,0-10.3,1.8-14.1,5.4c-3.6,3.5-5.7,7.7-6.2,12.9h39.4c0-5.1-1.6-9.3-4.8-12.8C73.5,180.2,68.7,178.4,62.7,178.4z"/>
		<path class="st1" d="M186,240.2v-45c0-11.2-4.8-16.8-14.5-16.8c-3.1,0-5.9,0.9-8.6,2.8c-2.7,1.9-4.5,4-5.4,6.4v52.6h-12.6v-50.5
			c0-3.5-1.3-6.3-4-8.3c-2.6-2-6.1-3-10.5-3c-2.5,0-5.2,1-8.1,2.9c-2.9,1.9-4.9,4.1-6.1,6.4v52.5h-12.6v-71.1h8.2l4.2,8.2
			c4.9-6.4,11-9.6,18.3-9.6c10.2,0,17.3,3.2,21.4,9.5c1.4-2.7,4.1-5,7.9-6.8c3.9-1.8,7.8-2.7,11.9-2.7c7.3,0,13,2.2,17.1,6.5
			c4,4.4,6,10.5,6,18.4v47.5H186z"/>
		<path class="st1" d="M223.3,235.1l-4.4,6.4h-6.3V139.9h12.6v34.4c1.2-1.6,3.4-3.1,6.7-4.5c3.3-1.4,6.5-2.1,9.7-2.1
			c9.7,0,17.6,3.4,23.7,10.1c6,6.7,9.1,15.2,9.1,25.5c0,11.9-3,21.2-9.1,28c-6.1,6.8-14.3,10.2-24.6,10.2c-3.4,0-6.7-0.6-9.9-1.9
			S225,236.9,223.3,235.1z M225.2,184v41c0,0.7,1.6,1.9,4.7,3.5c3.1,1.6,5.5,2.4,7.2,2.4c8.6,0,14.7-2.1,18.5-6.2s5.6-11,5.6-20.7
			c0-8.1-2.2-14.3-6.5-18.9c-4.3-4.5-10.2-6.8-17.5-6.8c-1.6,0-3.7,0.7-6.5,2C227.9,181.7,226,182.9,225.2,184z"/>
		<path class="st1" d="M344.3,205.9H293c0,8.3,2.3,14.7,6.8,19.2c4,3.9,9.2,5.8,15.5,5.8c7.2,0,13.2-2.1,18.1-6.3l5.3,9.1
			c-1.9,1.9-4.9,3.6-9,5c-5,1.9-10.7,2.8-16.9,2.8c-8.9,0-16.5-3-22.8-9.1c-7-6.7-10.4-15.7-10.4-27c0-11.7,3.6-21.1,10.7-28.2
			c6.4-6.3,13.9-9.5,22.6-9.5c10.1,0,18.1,2.9,23.8,8.6c5.6,5.5,8.4,12.8,8.4,21.8C345.3,201,345,203.5,344.3,205.9z M313.7,178.4
			c-5.6,0-10.3,1.8-14.1,5.4c-3.6,3.5-5.7,7.7-6.2,12.9h39.4c0-5.1-1.6-9.3-4.8-12.8C324.5,180.2,319.7,178.4,313.7,178.4z"/>
		<path class="st1" d="M393.3,181.2c-2.7-1.9-5.5-2.9-8.3-2.9c-4.5,0-8.4,2.1-11.7,6.2c-3.3,4.1-5,9.1-5,14.9v40.8h-12.6v-71.1h12.6
			v11.4c4.6-8.5,11.4-12.7,20.5-12.7c2.3,0,5.5,0.4,9.8,1.2L393.3,181.2z"/>
		<path class="st1" d="M441.6,220.1v-80.2h12.6v78c0,3.8,1.1,6.8,3.3,9s5.1,3.3,8.6,3.3v11.3C449.8,241.5,441.6,234.4,441.6,220.1z"
			/>
		<path class="st1" d="M472.1,204.5c0-11,3-19.8,8.9-26.6c5.9-6.8,13.7-10.1,23.3-10.1c10.2,0,18.1,3.2,23.7,9.7
			c5.6,6.5,8.4,15.5,8.4,27c0,11.5-2.9,20.5-8.6,27.1c-5.8,6.6-13.6,9.9-23.5,9.9c-10.1,0-18-3.3-23.7-10
			C474.9,224.8,472.1,215.8,472.1,204.5z M485.4,204.5c0,17.8,6.3,26.8,18.9,26.8c5.9,0,10.5-2.4,13.8-7.2c3.3-4.8,5-11.3,5-19.6
			c0-17.6-6.3-26.4-18.9-26.4c-5.8,0-10.3,2.3-13.8,7C487.1,189.8,485.4,196.3,485.4,204.5z"/>
		<path class="st1" d="M557.7,169.1v45.4c0,11,4.8,16.5,14.3,16.5c4.2,0,8-1.2,11.4-3.6s5.7-5.2,6.8-8.3v-49.9h12.6v71.1h-12.6v-9.8
			c-1.4,2.8-4.3,5.3-8.5,7.7c-4.3,2.3-8.4,3.5-12.5,3.5c-7.8,0-13.8-2.2-17.9-6.7c-4.1-4.5-6.2-10.8-6.2-19.1v-46.7H557.7z"/>
		<path class="st1" d="M659.9,240.2v-41.4c0-7.6-1.1-12.9-3.4-15.9c-2.3-3-6.1-4.5-11.5-4.5c-2.9,0-5.9,0.9-9,2.6
			c-3.1,1.7-5.6,3.9-7.2,6.4v52.9h-12.6v-71.1h8.6l4,9.2c4.2-7,11-10.5,20.4-10.5c15.6,0,23.4,9.5,23.4,28.4v44H659.9z"/>
		<path class="st1" d="M683.9,259.7l6.8-10.1c7.3,4.9,14.1,7.4,20.3,7.4c5.7,0,10.2-1,13.5-3c3.3-2,4.9-4.4,4.9-7.3
			c0-5.8-4.2-8.6-12.5-8.6c-1.4,0-4,0.4-7.7,1.1s-6.6,1.1-8.7,1.1c-10.1,0-15.1-3.8-15.1-11.4c0-2.3,1.2-4.5,3.6-6.4
			c2.4-1.9,5.3-3.3,8.8-4.1c-10-4.7-15-12.8-15-24.4c0-7.4,2.6-13.6,7.8-18.6c5.2-5,11.6-7.4,19.2-7.4c7,0,12.5,1.4,16.4,4.3
			l6.3-7.6l8.2,7.8l-7.6,5.7c3.2,4.2,4.8,9.7,4.8,16.5c0,7.2-2.2,13.2-6.7,18.1c-4.5,4.9-10.3,7.7-17.6,8.4l-10.4,1.1
			c-1.2,0.1-2.9,0.6-5,1.4c-2.1,0.8-3.1,1.9-3.1,3.2c0,1.8,2.2,2.7,6.5,2.7c1.9,0,4.9-0.3,8.9-1c4-0.7,7-1,9-1c7,0,12.5,1.7,16.4,5
			s5.9,8,5.9,13.9c0,6.6-2.9,11.8-8.8,15.9c-5.9,4-13.3,6-22.3,6c-4.6,0-9.5-0.8-14.5-2.5C691.1,264,687,262,683.9,259.7z
			 M710.7,177.9c-4.4,0-8,1.6-10.7,4.6c-2.8,3.1-4.2,6.9-4.2,11.3c0,5,1.3,9.1,4,12.3c2.7,3.3,6.3,4.9,10.9,4.9
			c4.5,0,8-1.6,10.5-4.7s3.8-7.3,3.8-12.5c0-4.4-1.4-8.2-4.1-11.3C718.2,179.5,714.8,177.9,710.7,177.9z"/>
		<path class="st1" d="M810.7,205.9h-51.3c0,8.3,2.3,14.7,6.8,19.2c4,3.9,9.2,5.8,15.5,5.8c7.2,0,13.2-2.1,18.1-6.3l5.3,9.1
			c-1.9,1.9-4.9,3.6-9,5c-5,1.9-10.7,2.8-16.9,2.8c-8.9,0-16.5-3-22.8-9.1c-7-6.7-10.4-15.7-10.4-27c0-11.7,3.6-21.1,10.7-28.2
			c6.4-6.3,13.9-9.5,22.6-9.5c10.1,0,18.1,2.9,23.8,8.6c5.6,5.5,8.4,12.8,8.4,21.8C811.7,201,811.4,203.5,810.7,205.9z M780.1,178.4
			c-5.6,0-10.3,1.8-14.1,5.4c-3.6,3.5-5.7,7.7-6.2,12.9h39.4c0-5.1-1.6-9.3-4.8-12.8C790.9,180.2,786.1,178.4,780.1,178.4z"/>
	</g>
</g>
<path d="M439.8,240.2"/>
</svg>
