<?xml version="1.0" encoding="utf-8"?>
<!-- Generator: Adobe Illustrator 21.1.0, SVG Export Plug-In . SVG Version: 6.00 Build 0)  -->
<svg version="1.1" id="Layer_1" xmlns="http://www.w3.org/2000/svg" xmlns:xlink="http://www.w3.org/1999/xlink" x="0px" y="0px"
	 viewBox="0 0 1280 171" style="enable-background:new 0 0 1280 171;" xml:space="preserve">
<style type="text/css">
	.st0{fill:#50B848;}
	.st1{fill:none;stroke:#50B848;stroke-width:5;stroke-miterlimit:10;}
	.st2{fill:#50B848;stroke:#50B848;stroke-width:4;stroke-miterlimit:10;}
	.st3{fill:none;stroke:#50B848;stroke-width:4;stroke-miterlimit:10;}
</style>
<g>
	<path class="st0" d="M439.7,97.8c-4.5,4.8-9.7,7.3-15.6,7.3c-3.4,0-6.6-0.7-9.5-2.2c-2.9-1.5-5.4-3.4-7.5-5.9
		c-2.1-2.4-3.8-5.2-5-8.3c-1.2-3.1-1.8-6.3-1.8-9.6c0-3.5,0.6-6.7,1.8-9.8c1.2-3.1,2.9-5.8,5-8.2c2.1-2.4,4.6-4.3,7.6-5.7
		c2.9-1.4,6.1-2.1,9.5-2.1c4.9,0,9,1,12.2,3.1c3.2,2.1,5.6,4.8,7.3,8.1l-5,3.5c-1.5-3-3.6-5.2-6.1-6.6c-2.5-1.4-5.4-2.2-8.6-2.2
		c-2.6,0-4.9,0.6-7.1,1.7c-2.1,1.1-3.9,2.6-5.4,4.5c-1.5,1.8-2.6,4-3.5,6.4c-0.8,2.4-1.2,4.9-1.2,7.5c0,2.7,0.5,5.3,1.4,7.7
		c0.9,2.4,2.2,4.6,3.7,6.4c1.6,1.8,3.5,3.3,5.6,4.4c2.2,1.1,4.5,1.6,7.1,1.6c5.6,0,10.6-2.7,15-8.1v-7.1h-11v-4.9h16.5v25.5h-5.5
		V97.8z"/>
	<path class="st0" d="M470.8,105.4c-2.8,0-5.4-0.5-7.8-1.5c-2.4-1-4.4-2.4-6-4.2c-1.7-1.8-3-3.9-3.9-6.2s-1.4-4.9-1.4-7.5
		c0-2.6,0.5-5.1,1.4-7.5c0.9-2.4,2.3-4.4,4-6.2c1.7-1.8,3.7-3.2,6.1-4.2c2.4-1,4.9-1.5,7.8-1.5c2.8,0,5.4,0.5,7.7,1.6
		c2.3,1.1,4.3,2.5,5.9,4.2c1.6,1.8,2.9,3.8,3.8,6.1c0.9,2.3,1.3,4.7,1.3,7.2c0,0.5,0,1,0,1.4c0,0.4-0.1,0.8-0.1,1h-31.2
		c0.1,1.9,0.6,3.6,1.3,5.1c0.7,1.5,1.7,2.9,2.8,4c1.2,1.1,2.5,2,3.9,2.6c1.5,0.6,3,0.9,4.6,0.9c1.2,0,2.3-0.2,3.4-0.5
		c1.1-0.3,2.1-0.7,3.1-1.3c1-0.5,1.8-1.2,2.6-1.9c0.7-0.8,1.3-1.6,1.7-2.6l5.5,1.5c-0.6,1.4-1.5,2.7-2.6,3.8c-1.1,1.2-2.3,2.1-3.7,3
		c-1.4,0.8-3,1.5-4.7,2C474.4,105.1,472.6,105.4,470.8,105.4z M483.7,83.4c-0.1-1.8-0.6-3.4-1.3-4.9c-0.7-1.5-1.7-2.8-2.8-3.9
		c-1.1-1.1-2.4-1.9-3.9-2.5c-1.5-0.6-3.1-0.9-4.8-0.9c-1.7,0-3.3,0.3-4.8,0.9c-1.5,0.6-2.8,1.4-3.9,2.5c-1.1,1.1-2,2.4-2.7,3.9
		c-0.7,1.5-1.1,3.1-1.3,4.9H483.7z"/>
	<path class="st0" d="M515.7,102.8c-0.4,0.2-0.9,0.4-1.5,0.7c-0.6,0.3-1.3,0.5-2.1,0.8c-0.8,0.3-1.7,0.5-2.6,0.6s-1.9,0.3-2.9,0.3
		c-2.3,0-4.3-0.6-6-1.9c-1.7-1.3-2.5-3.3-2.5-5.9V72.1h-5.1v-5h5.1V54.6h6.3v12.5h8.4v5h-8.4v23.3c0.1,1.4,0.6,2.4,1.4,3
		c0.8,0.6,1.8,0.9,2.9,0.9c1.2,0,2.4-0.2,3.4-0.6c1-0.4,1.7-0.7,2.1-1L515.7,102.8z"/>
	<path class="st0" d="M537.2,78.7c0-3.1,0.5-6.1,1.6-9.2c1.1-3,2.7-5.8,4.8-8.2c2.1-2.4,4.6-4.4,7.7-5.9c3-1.5,6.5-2.2,10.3-2.2
		c4.6,0,8.5,1,11.7,3.1c3.3,2.1,5.7,4.8,7.3,8.1l-5.1,3.3c-0.8-1.6-1.7-3-2.8-4.1c-1.1-1.1-2.3-2-3.5-2.7c-1.3-0.7-2.6-1.2-3.9-1.4
		s-2.7-0.4-4-0.4c-2.8,0-5.3,0.6-7.5,1.8c-2.2,1.2-4,2.7-5.5,4.6c-1.5,1.9-2.6,4-3.3,6.4c-0.7,2.4-1.1,4.8-1.1,7.2
		c0,2.7,0.4,5.2,1.3,7.7c0.9,2.4,2.1,4.6,3.7,6.4s3.5,3.4,5.6,4.5c2.2,1.1,4.5,1.7,7.1,1.7c1.3,0,2.7-0.2,4.1-0.5
		c1.4-0.3,2.8-0.9,4.1-1.6s2.5-1.7,3.6-2.8c1.1-1.1,2.1-2.5,2.8-4.1l5.4,3c-0.8,1.9-2,3.6-3.4,5.1c-1.5,1.5-3.1,2.7-5,3.7
		c-1.8,1-3.8,1.8-5.9,2.3c-2.1,0.5-4.1,0.8-6,0.8c-3.5,0-6.7-0.8-9.6-2.3c-2.9-1.5-5.5-3.5-7.6-6c-2.1-2.5-3.8-5.3-5-8.4
		C537.7,85.2,537.2,82,537.2,78.7z"/>
	<path class="st0" d="M604.8,105.4c-2.8,0-5.4-0.5-7.7-1.6c-2.3-1.1-4.3-2.5-6-4.2c-1.7-1.8-2.9-3.8-3.9-6.2
		c-0.9-2.4-1.4-4.8-1.4-7.4c0-2.6,0.5-5.1,1.4-7.5c0.9-2.4,2.2-4.4,3.9-6.2c1.7-1.8,3.6-3.2,6-4.2c2.3-1.1,4.9-1.6,7.7-1.6
		c2.8,0,5.4,0.5,7.7,1.6c2.4,1.1,4.4,2.5,6,4.2c1.7,1.8,3,3.8,3.9,6.2c0.9,2.4,1.4,4.8,1.4,7.5c0,2.6-0.5,5.1-1.4,7.4
		c-0.9,2.4-2.2,4.4-3.9,6.2c-1.7,1.8-3.7,3.2-6,4.2C610.2,104.9,607.6,105.4,604.8,105.4z M592.3,86c0,2,0.3,3.8,1,5.5
		c0.6,1.7,1.5,3.1,2.7,4.4c1.1,1.2,2.4,2.2,4,3c1.5,0.7,3.1,1.1,4.9,1.1c1.7,0,3.3-0.4,4.9-1.1c1.5-0.7,2.8-1.7,4-3
		c1.2-1.3,2.1-2.8,2.7-4.5c0.6-1.7,1-3.5,1-5.5c0-1.9-0.3-3.7-1-5.4c-0.6-1.7-1.5-3.2-2.7-4.5c-1.2-1.3-2.5-2.3-4-3
		c-1.5-0.7-3.1-1.1-4.9-1.1c-1.7,0-3.3,0.4-4.9,1.1c-1.5,0.7-2.8,1.8-4,3c-1.1,1.3-2,2.8-2.7,4.5C592.6,82.2,592.3,84.1,592.3,86z"
		/>
	<path class="st0" d="M663.9,104.7h-6.3v-21c0-4-0.6-7-1.8-8.8c-1.2-1.8-3.1-2.7-5.6-2.7c-1.3,0-2.6,0.3-3.9,0.8s-2.5,1.2-3.7,2.1
		c-1.2,0.9-2.2,1.9-3,3.1c-0.9,1.2-1.5,2.5-1.9,4v22.7h-6.3V67.1h5.8v8.1c1.5-2.6,3.6-4.8,6.4-6.3c2.8-1.6,5.9-2.4,9.2-2.4
		c2.2,0,4,0.4,5.4,1.2s2.6,1.9,3.5,3.3c0.9,1.4,1.5,3.1,1.8,5c0.4,1.9,0.5,4,0.5,6.3V104.7z"/>
	<path class="st0" d="M706.1,104.7h-6.3v-21c0-4-0.6-7-1.8-8.8c-1.2-1.8-3.1-2.7-5.6-2.7c-1.3,0-2.6,0.3-3.9,0.8s-2.5,1.2-3.7,2.1
		c-1.2,0.9-2.2,1.9-3,3.1c-0.9,1.2-1.5,2.5-1.9,4v22.7h-6.3V67.1h5.8v8.1c1.5-2.6,3.6-4.8,6.4-6.3c2.8-1.6,5.9-2.4,9.2-2.4
		c2.2,0,4,0.4,5.4,1.2s2.6,1.9,3.5,3.3c0.9,1.4,1.5,3.1,1.8,5c0.4,1.9,0.5,4,0.5,6.3V104.7z"/>
	<path class="st0" d="M732.4,105.4c-2.8,0-5.4-0.5-7.8-1.5c-2.4-1-4.4-2.4-6-4.2c-1.7-1.8-3-3.9-3.9-6.2c-0.9-2.4-1.4-4.9-1.4-7.5
		c0-2.6,0.5-5.1,1.4-7.5c0.9-2.4,2.3-4.4,4-6.2c1.7-1.8,3.7-3.2,6.1-4.2c2.4-1,4.9-1.5,7.8-1.5c2.8,0,5.4,0.5,7.7,1.6
		c2.3,1.1,4.3,2.5,5.9,4.2c1.6,1.8,2.9,3.8,3.8,6.1c0.9,2.3,1.3,4.7,1.3,7.2c0,0.5,0,1,0,1.4c0,0.4-0.1,0.8-0.1,1H720
		c0.1,1.9,0.6,3.6,1.3,5.1c0.7,1.5,1.7,2.9,2.8,4c1.2,1.1,2.5,2,3.9,2.6c1.5,0.6,3,0.9,4.6,0.9c1.2,0,2.3-0.2,3.4-0.5
		c1.1-0.3,2.1-0.7,3.1-1.3c1-0.5,1.8-1.2,2.6-1.9c0.7-0.8,1.3-1.6,1.7-2.6l5.5,1.5c-0.6,1.4-1.5,2.7-2.6,3.8c-1.1,1.2-2.3,2.1-3.7,3
		c-1.4,0.8-3,1.5-4.7,2C736.1,105.1,734.3,105.4,732.4,105.4z M745.3,83.4c-0.1-1.8-0.6-3.4-1.3-4.9c-0.7-1.5-1.7-2.8-2.8-3.9
		c-1.1-1.1-2.4-1.9-3.9-2.5c-1.5-0.6-3.1-0.9-4.8-0.9c-1.7,0-3.3,0.3-4.8,0.9c-1.5,0.6-2.8,1.4-3.9,2.5s-2,2.4-2.7,3.9
		c-0.7,1.5-1.1,3.1-1.3,4.9H745.3z"/>
	<path class="st0" d="M755.8,85.8c0-2.6,0.5-5.1,1.4-7.5c0.9-2.4,2.2-4.4,3.9-6.2c1.7-1.8,3.7-3.1,6-4.2c2.3-1,4.9-1.5,7.8-1.5
		c3.7,0,7,0.8,9.7,2.5c2.7,1.7,4.8,3.9,6.2,6.7l-6.2,1.9c-1-1.8-2.3-3.2-4-4.1c-1.7-1-3.6-1.5-5.8-1.5c-1.7,0-3.4,0.3-4.9,1
		c-1.5,0.7-2.9,1.7-4,2.9c-1.1,1.2-2,2.7-2.6,4.4c-0.6,1.7-1,3.5-1,5.5c0,2,0.3,3.8,1,5.5c0.7,1.7,1.6,3.2,2.7,4.5
		c1.1,1.3,2.4,2.3,4,3c1.5,0.7,3.1,1.1,4.9,1.1c1.1,0,2.2-0.2,3.3-0.5c1.1-0.3,2.1-0.7,3-1.3c0.9-0.5,1.7-1.1,2.3-1.8
		c0.7-0.7,1.2-1.5,1.4-2.3L791,96c-0.6,1.4-1.4,2.7-2.4,3.8s-2.2,2.1-3.6,3c-1.4,0.8-2.9,1.5-4.6,1.9c-1.7,0.5-3.5,0.7-5.4,0.7
		c-2.8,0-5.4-0.5-7.8-1.6c-2.4-1.1-4.4-2.5-6-4.2c-1.7-1.8-3-3.9-3.9-6.2C756.3,91,755.8,88.4,755.8,85.8z"/>
	<path class="st0" d="M817.6,102.8c-0.4,0.2-0.9,0.4-1.5,0.7c-0.6,0.3-1.3,0.5-2.1,0.8c-0.8,0.3-1.7,0.5-2.6,0.6
		c-0.9,0.2-1.9,0.3-2.9,0.3c-2.3,0-4.3-0.6-6-1.9c-1.7-1.3-2.5-3.3-2.5-5.9V72.1h-5.1v-5h5.1V54.6h6.3v12.5h8.4v5h-8.4v23.3
		c0.1,1.4,0.6,2.4,1.4,3c0.8,0.6,1.8,0.9,2.9,0.9c1.2,0,2.4-0.2,3.4-0.6c1-0.4,1.7-0.7,2.1-1L817.6,102.8z"/>
	<path class="st0" d="M839.8,105.4c-2.8,0-5.4-0.5-7.8-1.5c-2.4-1-4.4-2.4-6-4.2c-1.7-1.8-3-3.9-3.9-6.2c-0.9-2.4-1.4-4.9-1.4-7.5
		c0-2.6,0.5-5.1,1.4-7.5c0.9-2.4,2.3-4.4,4-6.2c1.7-1.8,3.7-3.2,6.1-4.2c2.4-1,4.9-1.5,7.8-1.5c2.8,0,5.4,0.5,7.7,1.6
		c2.3,1.1,4.3,2.5,5.9,4.2c1.6,1.8,2.9,3.8,3.8,6.1c0.9,2.3,1.3,4.7,1.3,7.2c0,0.5,0,1,0,1.4c0,0.4-0.1,0.8-0.1,1h-31.2
		c0.1,1.9,0.6,3.6,1.3,5.1c0.7,1.5,1.7,2.9,2.8,4c1.2,1.1,2.5,2,3.9,2.6c1.5,0.6,3,0.9,4.6,0.9c1.2,0,2.3-0.2,3.4-0.5
		c1.1-0.3,2.1-0.7,3.1-1.3c1-0.5,1.8-1.2,2.6-1.9c0.7-0.8,1.3-1.6,1.7-2.6l5.5,1.5c-0.6,1.4-1.5,2.7-2.6,3.8c-1.1,1.2-2.3,2.1-3.7,3
		c-1.4,0.8-3,1.5-4.7,2C843.5,105.1,841.7,105.4,839.8,105.4z M852.7,83.4c-0.1-1.8-0.6-3.4-1.3-4.9c-0.7-1.5-1.7-2.8-2.8-3.9
		c-1.1-1.1-2.4-1.9-3.9-2.5c-1.5-0.6-3.1-0.9-4.8-0.9c-1.7,0-3.3,0.3-4.8,0.9c-1.5,0.6-2.8,1.4-3.9,2.5s-2,2.4-2.7,3.9
		c-0.7,1.5-1.1,3.1-1.3,4.9H852.7z"/>
	<path class="st0" d="M881.2,105.4c-2.6,0-5-0.5-7.2-1.6c-2.2-1.1-4.1-2.5-5.7-4.2c-1.6-1.8-2.8-3.8-3.7-6.2
		c-0.9-2.4-1.3-4.8-1.3-7.4c0-2.6,0.4-5.1,1.3-7.5s2-4.5,3.5-6.2c1.5-1.8,3.3-3.2,5.4-4.2c2.1-1,4.4-1.5,6.9-1.5
		c3,0,5.7,0.8,8.1,2.4s4.3,3.5,5.7,5.8V52.1h6.3v44.8c0,1.5,0.7,2.3,2,2.3v5.5c-0.5,0.1-1,0.2-1.4,0.2c-0.4,0-0.8,0.1-1.1,0.1
		c-1.4,0-2.6-0.4-3.5-1.1c-0.9-0.7-1.3-1.6-1.4-2.7l-0.1-3.5c-1.5,2.4-3.5,4.4-5.9,5.7C886.5,104.7,883.9,105.4,881.2,105.4z
		 M882.7,99.9c1.2,0,2.3-0.2,3.6-0.6c1.2-0.4,2.4-1,3.5-1.8s2-1.7,2.8-2.7s1.3-2.1,1.5-3.3V80.7c-0.4-1.2-1.1-2.3-1.9-3.4
		s-1.8-2-2.9-2.8s-2.2-1.4-3.5-1.9c-1.2-0.5-2.4-0.7-3.6-0.7c-1.9,0-3.6,0.4-5.1,1.2s-2.8,1.8-3.9,3.2c-1.1,1.3-1.9,2.8-2.5,4.5
		c-0.6,1.7-0.9,3.4-0.9,5.2c0,1.9,0.3,3.7,1,5.4c0.7,1.7,1.6,3.2,2.7,4.4c1.2,1.2,2.5,2.2,4.1,3C879.2,99.5,880.9,99.9,882.7,99.9z"
		/>
</g>
<path class="st1" d="M0,85c0,0,48-39,77-23s62,67,95,63s71-66,103-67s102,21,128,23"/>
<path class="st1" d="M898,83c0,0,49.9-20.3,69-18c33,4,60,45,119,40s99-26,99-26"/>
<rect x="1182.3" y="54.9" transform="matrix(0.9059 -0.4236 0.4236 0.9059 81.8371 513.1547)" class="st2" width="26.1" height="35"/>
<rect x="1205.9" y="48.1" transform="matrix(0.9059 -0.4236 0.4236 0.9059 89.2089 522.9955)" class="st3" width="30.6" height="25.4"/>
<rect x="1222.3" y="52" transform="matrix(0.9059 -0.4236 0.4236 0.9059 92.1979 523.961)" class="st0" width="5.2" height="5.2"/>
<rect x="1226" y="60.1" transform="matrix(0.9059 -0.4236 0.4236 0.9059 89.1214 526.3294)" class="st0" width="5.2" height="5.2"/>
</svg>
