<?xml version="1.0" encoding="utf-8"?>
<!-- Generator: Adobe Illustrator 21.1.0, SVG Export Plug-In . SVG Version: 6.00 Build 0)  -->
<svg version="1.1" id="Layer_1" xmlns="http://www.w3.org/2000/svg" xmlns:xlink="http://www.w3.org/1999/xlink" x="0px" y="0px"
	 viewBox="0 0 720 720" style="enable-background:new 0 0 720 720;" xml:space="preserve">
<style type="text/css">
	.st0{fill:url(#SVGID_1_);}
	.st1{fill:none;stroke:#FFFFFF;stroke-width:35.0651;stroke-miterlimit:10;}
	.st2{fill:none;stroke:#FFFFFF;stroke-width:42.8573;stroke-miterlimit:10;}
	.st3{fill:#FFFFFF;}
</style>
<g>
	<radialGradient id="SVGID_1_" cx="225.2791" cy="664.491" r="646.7951" gradientUnits="userSpaceOnUse">
		<stop  offset="0" style="stop-color:#FFD776"/>
		<stop  offset="0.2463" style="stop-color:#F3A554"/>
		<stop  offset="0.3793" style="stop-color:#F15C3C"/>
		<stop  offset="0.5394" style="stop-color:#D94867"/>
		<stop  offset="0.6995" style="stop-color:#C32F87"/>
		<stop  offset="0.9122" style="stop-color:#7D63A7"/>
		<stop  offset="0.9852" style="stop-color:#5C6CB3"/>
	</radialGradient>
	<path class="st0" d="M680.4,525.8c0,77.5-62.5,140.3-139.6,140.3H178.4c-77.1,0-139.6-62.8-139.6-140.3V166.1
		c0-77.5,62.5-140.3,139.6-140.3h362.4c77.1,0,139.6,62.8,139.6,140.3V525.8z"/>
	<g>
		<path class="st1" d="M575,449.2c0,65.8-53.4,119.2-119.2,119.2H263.4c-65.8,0-119.2-53.4-119.2-119.2V244
			c0-65.8,53.4-119.2,119.2-119.2h192.3c65.8,0,119.2,53.4,119.2,119.2V449.2z"/>
		<path class="st2" d="M465.4,345.9c-1.3,58.4-47.4,105.8-105.8,105.8s-105.8-47.4-105.8-105.8s47.4-107.5,105.8-105.8
			C430.7,242.3,466.6,287.7,465.4,345.9z"/>
		<circle class="st3" cx="489.9" cy="215.2" r="29.7"/>
	</g>
</g>
</svg>
