<?xml version="1.0" encoding="utf-8"?>
<!-- Generator: Adobe Illustrator 21.1.0, SVG Export Plug-In . SVG Version: 6.00 Build 0)  -->
<svg version="1.1" id="Layer_1" xmlns="http://www.w3.org/2000/svg" xmlns:xlink="http://www.w3.org/1999/xlink" x="0px" y="0px"
	 viewBox="0 0 432 432" style="enable-background:new 0 0 432 432;" xml:space="preserve">
<style type="text/css">
	.st0{fill:#FFFC00;}
	.st1{fill:#777100;}
</style>
<g>
	<path class="st0" d="M363.2,0c38,0,68.8,30.8,68.8,68.8v294.3c0,38-30.8,68.8-68.8,68.8H68.8C30.8,432,0,401.2,0,363.2V68.8
		C0,30.8,30.8,0,68.8,0H363.2z"/>
	<g>
		<g>
			<g>
				<path class="st1" d="M217.6,364.5c-0.8,0-1.6,0-2.4-0.1h0c-0.5,0-1,0.1-1.6,0.1c-18.7,0-30.8-8.5-42.4-16.7
					c-8-5.7-15.6-11-24.6-12.5c-4.4-0.7-8.7-1.1-12.9-1.1c-7.6,0-13.5,1.2-17.9,2c-2.6,0.5-4.9,1-6.7,1c-1.8,0-3.8-0.4-4.6-3.3
					c-0.7-2.5-1.3-5-1.8-7.3c-1.3-6.1-2.3-9.8-4.8-10.2c-29.7-4.6-38.2-10.9-40.1-15.3c-0.3-0.6-0.4-1.3-0.5-1.9
					c-0.1-1.7,1.1-3.2,2.8-3.5c45.7-7.5,66.2-54.2,67.1-56.2c0-0.1,0-0.1,0.1-0.2c2.8-5.7,3.3-10.6,1.6-14.6
					c-3.1-7.4-13.4-10.6-20.1-12.8c-1.7-0.5-3.2-1-4.5-1.5c-13.5-5.3-14.6-10.8-14.1-13.6c0.9-4.8,7.3-8.1,12.4-8.1
					c1.4,0,2.7,0.3,3.7,0.7c6.1,2.8,11.6,4.3,16.3,4.3c6.5,0,9.4-2.7,9.7-3.1c-0.2-3.1-0.4-6.3-0.6-9.7c-1.4-21.6-3-48.5,3.8-63.8
					c20.5-45.9,63.9-49.5,76.8-49.5c0.3,0,5.6-0.1,5.6-0.1l0.8,0c12.9,0,56.4,3.6,76.9,49.5c6.8,15.3,5.1,42.2,3.8,63.8l-0.1,0.9
					c-0.2,3-0.4,5.9-0.5,8.7c0.3,0.3,2.9,2.9,8.9,3.1h0c4.5-0.2,9.7-1.6,15.3-4.3c1.7-0.8,3.5-0.9,4.8-0.9c1.9,0,3.9,0.4,5.5,1
					l0.1,0c4.6,1.6,7.6,4.8,7.7,8.2c0.1,3.2-2.4,7.9-14.2,12.6c-1.2,0.5-2.8,1-4.5,1.5c-6.8,2.2-17,5.4-20.1,12.8
					c-1.7,4-1.2,9,1.6,14.6c0,0.1,0.1,0.1,0.1,0.2c0.9,2,21.3,48.7,67.1,56.2c1.7,0.3,2.9,1.8,2.8,3.5c0,0.6-0.2,1.3-0.5,1.9
					c-1.9,4.4-10.4,10.7-40.1,15.3c-2.4,0.4-3.4,3.5-4.8,10.2c-0.5,2.4-1.1,4.8-1.8,7.3c-0.6,2.2-2,3.2-4.3,3.2H322
					c-1.6,0-3.8-0.3-6.7-0.8c-5-1-10.7-1.9-17.9-1.9c-4.2,0-8.5,0.4-12.9,1.1c-8.9,1.5-16.5,6.8-24.5,12.5
					C248.4,356,236.3,364.5,217.6,364.5z"/>
			</g>
		</g>
	</g>
</g>
</svg>
