<?xml version="1.0" encoding="utf-8"?>
<!-- Generator: Adobe Illustrator 21.1.0, SVG Export Plug-In . SVG Version: 6.00 Build 0)  -->
<svg version="1.1" id="Layer_1" xmlns="http://www.w3.org/2000/svg" xmlns:xlink="http://www.w3.org/1999/xlink" x="0px" y="0px"
	 viewBox="0 0 596.8 595.3" style="enable-background:new 0 0 596.8 595.3;" xml:space="preserve">
<style type="text/css">
	.st0{fill:#F8991D;}
	.st1{fill:#FFFFFF;}
</style>
<rect x="26.4" y="26.4" class="st0" width="542.5" height="542.5"/>
<g>
	<path class="st1" d="M25.9,230.8 M26,269.8 M26.1,289.6l0.9-0.9c2.7,3.1,5.8,5.6,9.3,7.5s6.7,2.9,9.5,2.9c3,0,5.4-0.7,7.2-2.2
		c1.8-1.4,2.7-3.1,2.7-5c0-3.5-3.3-6.9-9.9-10.2l-7.6-3.8c-4.9-2.5-9-5.1-12.2-8 M26.1,289.6 M26.1,315 M25.9,230.8
		c5.3-4.3,11.9-6.4,19.7-6.4c5.9,0,11.4,1.3,16.5,3.9c5.2,2.6,9.5,6.3,13.1,11.1l-14,14c-5.7-5.6-10.9-8.5-15.5-8.5
		c-2.5,0-4.5,0.5-6,1.6c-1.4,1.1-2.2,2.4-2.2,4c0,1.2,0.5,2.3,1.4,3.4c0.9,1,3.2,2.4,6.8,4.2l8.3,4.1c8.7,4.3,14.7,8.7,18,13.2
		c3.3,4.5,4.9,9.7,4.9,15.8c0,8-2.9,14.7-8.8,20.1c-5.9,5.4-13.8,8-23.7,8c-6.9,0-13-1.4-18.4-4.2"/>
	<path class="st1" d="M144.4,226.7h22.6v123.2h-22.6v-42.5c-4.4,4.2-8.8,7.2-13.3,9.1c-4.4,1.9-9.3,2.8-14.5,2.8
		c-11.6,0-21.7-4.5-30.2-13.6c-8.5-9-12.8-20.3-12.8-33.7c0-13.9,4.1-25.3,12.3-34.2c8.2-8.9,18.2-13.3,30-13.3
		c5.4,0,10.5,1,15.2,3.1c4.7,2,9.1,5.1,13.2,9.2V226.7z M120.7,245.3c-7,0-12.8,2.5-17.4,7.4c-4.6,4.9-6.9,11.3-6.9,19
		c0,7.8,2.4,14.2,7.1,19.2c4.7,5,10.5,7.5,17.4,7.5c7.1,0,13-2.5,17.7-7.4c4.7-4.9,7-11.4,7-19.4c0-7.8-2.3-14.2-7-19.1
		C133.7,247.7,127.8,245.3,120.7,245.3z"/>
	<path class="st1" d="M172.9,226.7h22.9v43.4c0,8.5,0.6,14.3,1.7,17.6c1.2,3.3,3,5.8,5.6,7.7c2.6,1.8,5.7,2.7,9.5,2.7
		c3.8,0,7-0.9,9.6-2.7c2.6-1.8,4.6-4.4,5.9-7.9c0.9-2.6,1.4-8.2,1.4-16.7v-44.2h22.6v38.2c0,15.8-1.2,26.5-3.7,32.3
		c-3,7.1-7.5,12.5-13.4,16.3c-5.9,3.8-13.4,5.7-22.6,5.7c-9.9,0-17.9-2.2-24-6.6c-6.1-4.4-10.4-10.6-12.9-18.5
		c-1.8-5.5-2.7-15.4-2.7-29.8V226.7z"/>
	<path class="st1" d="M348.3,278.4h-72.7c1,6.4,3.9,11.5,8.4,15.3c4.6,3.8,10.4,5.7,17.5,5.7c8.5,0,15.7-3,21.8-8.9l19.1,9
		c-4.8,6.7-10.4,11.7-17.1,15c-6.6,3.2-14.5,4.9-23.6,4.9c-14.2,0-25.7-4.5-34.6-13.4c-8.9-8.9-13.3-20.1-13.3-33.5
		c0-13.8,4.4-25.2,13.3-34.3c8.9-9.1,20-13.6,33.4-13.6c14.2,0,25.8,4.5,34.7,13.6c8.9,9.1,13.3,21.1,13.3,36L348.3,278.4z
		 M325.6,260.5c-1.5-5-4.4-9.1-8.8-12.3c-4.4-3.2-9.5-4.7-15.3-4.7c-6.3,0-11.8,1.8-16.6,5.3c-3,2.2-5.8,6.1-8.3,11.7H325.6z"/>
	<path class="st1" d="M440,278.4h-72.7c1,6.4,3.9,11.5,8.4,15.3c4.6,3.8,10.4,5.7,17.5,5.7c8.5,0,15.7-3,21.8-8.9l19.1,9
		c-4.8,6.7-10.4,11.7-17.1,15c-6.6,3.2-14.5,4.9-23.6,4.9c-14.2,0-25.7-4.5-34.6-13.4c-8.9-8.9-13.3-20.1-13.3-33.5
		c0-13.8,4.4-25.2,13.3-34.3c8.9-9.1,20-13.6,33.4-13.6c14.2,0,25.8,4.5,34.7,13.6c8.9,9.1,13.3,21.1,13.3,36L440,278.4z
		 M417.4,260.5c-1.5-5-4.4-9.1-8.8-12.3c-4.4-3.2-9.5-4.7-15.3-4.7c-6.3,0-11.8,1.8-16.6,5.3c-3,2.2-5.8,6.1-8.3,11.7H417.4z"/>
	<path class="st1" d="M437.5,226.7h69.1l-40.5,71.1h38.2v19.2h-73l40.7-71.1h-34.5V226.7z"/>
	<path class="st1" d="M569,314.8c-6.5,3-14.1,4.5-22.8,4.5c-14.2,0-25.7-4.5-34.6-13.4c-8.9-8.9-13.3-20.1-13.3-33.5
		c0-13.8,4.4-25.2,13.3-34.3c8.9-9.1,20-13.6,33.4-13.6c9.1,0,17.1,1.9,24.1,5.6 M569.8,314.4c-0.3,0.1-0.5,0.3-0.8,0.4 M569,291
		 M569.1,278.4h-48.9c1,6.4,3.9,11.5,8.4,15.3c4.6,3.8,10.4,5.7,17.5,5.7c8.5,0,15.7-3,21.8-8.9l1.2,0.6 M569.1,278.4 M569,230
		 M568.9,257.2 M569,260.5 M568.9,257.2c-1.7-3.5-4.2-6.5-7.6-8.9c-4.4-3.2-9.5-4.7-15.3-4.7c-6.3,0-11.8,1.8-16.6,5.3
		c-3,2.2-5.8,6.1-8.3,11.7H569"/>
</g>
<g>
	<path class="st1" d="M178.4,443c0,0,18.6-12.6,18.6-37.7c0-41.1-38.7-45.4-38.7-45.4l-100,0l0.1,166.2l95.8-0.1
		c0,0,42.3-4.7,42.3-46.2C196.5,453.3,178.4,443,178.4,443z M134.9,480.2h-22.6v-18l22.5-0.1c0,0,8.3,0,8.3,9
		C143.1,480.2,134.9,480.2,134.9,480.2z M134.9,423.6h-22.6v-18l22.5-0.1c0,0,8.3,0,8.3,9C143.1,423.6,134.9,423.6,134.9,423.6z"/>
	<polygon class="st1" points="357.4,359.4 423.9,359.4 445.8,392.7 467.6,359.4 534.3,359.4 479,442.7 534.3,526 467.7,526 
		445.8,492.8 424,526 357.4,526 412.7,442.7 	"/>
	<path class="st1" d="M288.7,359.5c-47.2,0-85.4,38.2-85.4,85.4s38.2,85.4,85.4,85.4c47.2,0,85.4-38.2,85.4-85.4
		S335.9,359.5,288.7,359.5z M320.1,394.3c7-6.1,14.1,0.3,14.1,0.3l11.9,13.7c0,0,4.8,7.8-1.8,13.4c-1.6,1.3-10.4,5-21.2,9.8
		c-11.5,5-23.8,10.9-26.9,7.3c-3.7-4.3,5.4-15.3,13.6-28.6C312.5,405.8,318.2,395.9,320.1,394.3z M278.4,376.1h19
		c0,0,9.4,1.5,9.4,10.2c0,2.1-3.2,11.2-6.8,22.5c-3.9,12-7.7,25.2-12.7,25.2c-5.9,0-8.3-14.2-13.2-29.1c-1.6-4.9-5.5-15.7-5.5-18.2
		C268.6,377.2,278.4,376.1,278.4,376.1z M229.4,406.9l12.2-14.2c0,0,7.1-6,13.7-0.4c1.6,1.3,6.4,9.6,12.6,19.6
		c6.6,10.7,14.1,22,10.9,25.7c-3.8,4.4-16-3-30.4-9c-4.7-2-15.4-6.1-17.3-7.7C224,415,229.4,406.9,229.4,406.9z M222.3,464.2
		l-2.6-18c0,0,0.2-9.1,8.7-10.3c2-0.3,11.4,1.4,22.9,3.2c12.3,2,25.7,3.7,26.4,8.4c0.8,5.6-12.7,9.9-26.7,16.7
		c-4.6,2.2-14.6,7.5-17.1,7.8C224.8,473.4,222.3,464.2,222.3,464.2z M281.9,488.8c-0.7,5-2,16.4-3.1,18.6c-4,8.3-13,5.3-13,5.3
		l-16.4-7.8c0,0-7.4-5.2-3.7-13c0.9-1.8,7.5-8.7,15.5-17.3c8.5-9.2,17.4-19.4,21.7-17.3C288,459.6,284,473.3,281.9,488.8z
		 M282.6,446.3c0-3.9,3.2-7.1,7.1-7.1c3.9,0,7.1,3.2,7.1,7.1c0,3.9-3.2,7.1-7.1,7.1C285.8,453.4,282.6,450.2,282.6,446.3z
		 M332.1,502.8l-15.7,9.3c0,0-8.5,3.3-12.9-4.1c-1-1.8-3.1-11.1-5.8-22.6c-2.9-12.2-6.4-25.3-2.3-27.7c4.9-2.9,14,8,25.7,18.4
		c3.8,3.4,12.5,10.7,13.8,12.9C339.6,497,332.1,502.8,332.1,502.8z M346.5,472.8c-2-0.2-10.8-4.2-21.5-8.9
		c-11.5-5-24.1-10-23.6-14.8c0.6-5.6,14.9-6.3,30.2-9.4c5-1,16.1-3.5,18.6-3.2c9.2,1,9.3,10.5,9.3,10.5l-2,18
		C357.5,465,355.1,473.7,346.5,472.8z"/>
</g>
</svg>
