<?xml version="1.0" encoding="utf-8"?>
<!-- Generator: Adobe Illustrator 21.1.0, SVG Export Plug-In . SVG Version: 6.00 Build 0)  -->
<svg version="1.1" id="Layer_1" xmlns="http://www.w3.org/2000/svg" xmlns:xlink="http://www.w3.org/1999/xlink" x="0px" y="0px"
	 viewBox="0 0 136.3 249.3" style="enable-background:new 0 0 136.3 249.3;" xml:space="preserve">
<style type="text/css">
	.st0{fill:#AC0026;}
</style>
<path class="st0" d="M68.4,134.4c-10.9-10.9-25.3-32.6-26-44.1c7.9-2,16.6-3.1,25.9-3.1c9.3,0,18.1,1.1,26.1,3.1
	C93.7,101.8,79.3,123.5,68.4,134.4z"/>
<g>
	<path class="st0" d="M59.3,141.6c-5-5-9.8-10.6-14.1-16.9c-6.8-9.9-11.7-20.3-14.7-30.4c-2.6,0.8-5.3,1.9-7.8,3.4
		c-15.4,8.7-21.3,27.1-13.1,41c8.2,13.9,27.2,18.1,42.6,9.3c2.9-1.7,5.5-3.6,7.7-5.9L59.3,141.6z"/>
	<path class="st0" d="M59.3,141.6c-5-5-9.8-10.6-14.1-16.9c-6.8-9.9-11.7-20.3-14.7-30.4c-2.6,0.8-5.3,1.9-7.8,3.4
		c-15.4,8.7-21.3,27.1-13.1,41c8.2,13.9,27.2,18.1,42.6,9.3c2.9-1.7,5.5-3.6,7.7-5.9L59.3,141.6z"/>
	<path class="st0" d="M77.7,141.9c5-5,9.8-10.8,14.1-17.1c6.8-10,11.7-20.6,14.7-30.8c2.6,0.8,5.3,2,7.8,3.4
		c15.3,8.9,21.2,27.4,13.1,41.5c-8.1,14.1-27.1,18.3-42.5,9.4c-2.9-1.7-5.5-3.7-7.6-6L77.7,141.9z"/>
	<path class="st0" d="M77.7,141.9c5-5,9.8-10.8,14.1-17.1c6.8-10,11.7-20.6,14.7-30.8c2.6,0.8,5.3,2,7.8,3.4
		c15.3,8.9,21.2,27.4,13.1,41.5c-8.1,14.1-27.1,18.3-42.5,9.4c-2.9-1.7-5.5-3.7-7.6-6L77.7,141.9z"/>
</g>
<path class="st0" d="M11.3,243v-86.2c15.6,11.4,38.7,10.3,55.2-4.4c0.7-0.6,1.2-1.3,1.9-1.9c0.7,0.6,1.6,1.7,2.4,2.3
	c16.1,13.4,38.2,15.1,53.7,5.2l0.6-0.2c0,13.4,0,80.8,0,85.1L11.3,243z"/>
<path class="st0" d="M108,81.3c0-4.7,0-8.8,0-13l-12.1,0v10.2h0c-8.4-2-17.5-3.1-26.9-3.1c-10.1,0-19.8,1.2-28.7,3.5
	c0-4,0-7.6,0-10.7l-12,0h-0.2l0.1,14.1c-2.8,0.8-5.7,1.9-8.3,3.4c-3.2,1.7-6.2,3.4-8.6,5.8v0.2V8.9L125,9.1L124.9,91
	c-2.4-2.3-5.5-4.2-8.7-5.9c-2.4-1.3-4.8-2.3-7.3-3.1c-0.3-0.1-0.6-0.2-0.9-0.3L108,81.3z"/>
</svg>
