<?xml version="1.0" encoding="iso-8859-1"?>
<!-- Generator: Adobe Illustrator 21.0.2, SVG Export Plug-In . SVG Version: 6.00 Build 0)  -->
<svg version="1.1" id="Layer_1" xmlns="http://www.w3.org/2000/svg" xmlns:xlink="http://www.w3.org/1999/xlink" x="0px" y="0px"
	 viewBox="0 0 361.538 293.255" style="enable-background:new 0 0 361.538 293.255;" xml:space="preserve">
<g>
	<g>
		<g>
			<path style="fill:#C8C7C7;" d="M264.714,146.226l0.083-0.064h-2.615H95.764h-2.615l0.001,0.066
				c-34.589,1.373-62.212,29.831-62.212,64.756c0,35.802,29.023,64.822,64.825,64.822h166.418c35.802,0,64.825-29.02,64.825-64.822
				C327.007,176.031,299.341,147.557,264.714,146.226z"/>
		</g>
	</g>
	<g>
		<path style="fill:#D7D8D7;" d="M108.535,31.236h22.522c9.479-17.724,28.16-29.787,49.665-29.787
			c21.505,0,40.186,12.063,49.665,29.787h59.457c35.885,0,65.794,28.548,66.255,64.429c0.469,36.457-28.937,66.155-65.286,66.155
			h-14.545H70.725c-36.349,0-65.755-29.698-65.286-66.155C5.9,59.783,35.809,31.236,71.694,31.236h59.457"/>
	</g>
	<g>
		<g>
			<g>
				<path style="fill:#FFFFFF;" d="M112.545,191.255l-17.507,54.252H79.343l-17.361-54.252h10.632l14.468,45.571h0.216
					l14.468-45.571H112.545z"/>
			</g>
			<g>
				<path style="fill:#FFFFFF;" d="M166.067,210.64v14.612c0,17.361-6.729,20.688-23.148,20.688
					c-16.783,0-22.932-2.893-22.932-20.688V210.64c0-16.854,5.715-19.82,22.932-19.82
					C158.542,190.82,166.067,193.207,166.067,210.64z M130.404,210.64v14.612c0,10.778,2.099,11.791,12.516,11.791
					c9.475,0,12.731-1.302,12.731-11.791V210.64c0.216-10.2-3.472-10.923-12.731-10.923
					C131.705,199.717,130.622,202.032,130.404,210.64z"/>
			</g>
			<g>
				<path style="fill:#FFFFFF;" d="M189.494,245.506h-10.416v-54.252h10.416V245.506z"/>
			</g>
			<g>
				<path style="fill:#FFFFFF;" d="M236.654,209.411v-2.967c0-6.292-2.458-6.727-11.574-6.727c-10.488,0-12.297,1.736-12.297,12.371
					v12.007c0.072,10.85,1.375,12.948,12.297,12.948c8.392,0,12.154-0.29,12.154-8.03v-2.965h10.416v3.544
					c0.216,16.348-9.115,15.77-22.57,16.348c-19.095,0.724-22.496-5.57-22.714-21.411v-12.441c0-17.361,6.729-21.268,22.714-21.268
					c13.527,0,21.266,0.073,21.99,15.625v2.967H236.654z"/>
			</g>
			<g>
				<path style="fill:#FFFFFF;" d="M269.921,213.678h25.39v8.535h-25.39v14.395h26.982v8.897h-37.398v-54.252h37.182v8.897h-26.766
					V213.678z"/>
			</g>
		</g>
	</g>
	<g>
		<g>
			<path style="fill:#FFFFFF;" d="M67.063,79.878c-0.102,0.418-0.3,0.693-0.587,0.823c-0.287,0.131-0.562,0.169-0.823,0.118
				c-0.262-0.051-0.485-0.198-0.664-0.431c-0.185-0.236-0.249-0.562-0.198-0.983c0.575-2.352,0.211-4.312-1.098-5.882
				c-1.309-1.567-3.115-2.534-5.413-2.901c-1.36-0.262-3.007-0.342-4.941-0.236c-1.934,0.105-3.9,0.444-5.886,1.021
				c-2.094,0.575-3.971,1.478-5.649,2.703c-1.672,1.232-2.77,2.579-3.294,4.041c-0.313,0.942-0.402,1.87-0.274,2.786
				c0.134,0.913,0.409,1.778,0.823,2.588c0.421,0.811,0.932,1.596,1.532,2.352c0.6,0.76,1.213,1.452,1.845,2.078
				c1.098,1.098,2.496,2.17,4.194,3.217c1.698,1.047,3.441,2.145,5.215,3.294c1.206,0.785,2.381,1.609,3.53,2.47
				c1.149,0.862,2.158,1.791,3.019,2.786c0.868,0.993,1.57,2.065,2.119,3.214c0.549,1.152,0.823,2.381,0.823,3.686
				c0,1.254-0.089,2.419-0.274,3.492c-0.185,1.072-0.638,2.132-1.372,3.176c-0.472,0.734-1.047,1.372-1.724,1.921
				c-0.683,0.549-1.385,1.088-2.119,1.609c-0.938,0.68-1.947,1.242-3.019,1.685c-1.072,0.444-2.158,0.852-3.256,1.216
				c-3.141,0.993-6.249,1.516-9.333,1.57c-2.458,0.105-4.826-0.038-7.098-0.431c-2.279-0.393-4.59-0.903-6.945-1.529
				c-0.415-0.16-0.677-0.383-0.785-0.667c-0.102-0.29-0.115-0.578-0.038-0.865c0.077-0.287,0.249-0.507,0.511-0.667
				c0.262-0.156,0.6-0.182,1.021-0.077c2.196,0.575,4.366,1.06,6.511,1.449c2.138,0.393,4.392,0.536,6.741,0.434
				c2.93-0.105,5.809-0.578,8.63-1.414c1.519-0.469,2.904-1.031,4.156-1.685c1.258-0.654,2.33-1.424,3.217-2.314
				c1.73-1.621,2.668-3.543,2.828-5.764c0.153-2.225-0.919-4.641-3.217-7.258c-1.309-1.516-2.828-2.783-4.551-3.805
				c-1.724-1.018-3.402-2.078-5.017-3.176c-1.366-0.887-2.79-1.896-4.277-3.019c-1.494-1.123-2.758-2.445-3.805-3.961
				c-1.047-1.465-1.755-3.019-2.119-4.67c-0.364-1.647-0.153-3.358,0.626-5.136c0.734-1.672,2.017-3.137,3.849-4.395
				c1.826-1.254,3.868-2.247,6.115-2.978c2.196-0.734,4.405-1.191,6.626-1.372c2.221-0.185,4.149-0.067,5.771,0.351
				c1.411,0.367,2.7,0.878,3.881,1.529c1.175,0.654,2.145,1.465,2.898,2.432c0.76,0.97,1.27,2.078,1.532,3.335
				C67.56,76.897,67.484,78.308,67.063,79.878z"/>
			<path style="fill:#FFFFFF;" d="M38.7,121.828c-1.935,0-3.829-0.158-5.644-0.472c-2.263-0.39-4.614-0.907-6.988-1.538
				c-0.602-0.228-0.962-0.549-1.124-0.972c-0.14-0.398-0.157-0.789-0.054-1.172c0.109-0.411,0.356-0.736,0.734-0.965
				c0.38-0.228,0.85-0.273,1.403-0.134c2.208,0.578,4.387,1.062,6.479,1.441c2.09,0.384,4.321,0.529,6.629,0.427
				c2.875-0.103,5.737-0.572,8.51-1.394c1.477-0.456,2.847-1.012,4.066-1.649c1.212-0.63,2.253-1.378,3.095-2.224
				c1.658-1.554,2.531-3.332,2.684-5.447c0.142-2.072-0.899-4.392-3.095-6.892c-1.265-1.466-2.755-2.711-4.431-3.705
				c-1.761-1.041-3.458-2.115-5.043-3.192c-1.341-0.871-2.75-1.865-4.297-3.034c-1.519-1.142-2.836-2.514-3.915-4.076
				c-1.08-1.512-1.821-3.144-2.196-4.846c-0.384-1.741-0.164-3.573,0.656-5.444c0.769-1.751,2.123-3.301,4.024-4.606
				c1.853-1.273,3.953-2.296,6.243-3.042c2.214-0.74,4.483-1.21,6.74-1.396c2.268-0.188,4.264-0.065,5.937,0.365
				c1.434,0.374,2.778,0.903,3.997,1.575c1.238,0.689,2.264,1.551,3.051,2.563c0.804,1.027,1.352,2.219,1.627,3.541
				c0.277,1.328,0.196,2.829-0.242,4.462c-0.175,0.708-0.566,1.019-0.864,1.154c-0.382,0.174-0.761,0.227-1.127,0.153
				c-0.376-0.073-0.71-0.286-0.964-0.617c-0.264-0.336-0.365-0.791-0.298-1.348c0.551-2.269,0.225-4.05-0.985-5.502
				c-1.222-1.464-2.941-2.382-5.108-2.728c-1.334-0.257-2.955-0.335-4.834-0.231c-1.901,0.104-3.844,0.441-5.773,1.002
				c-2.018,0.554-3.864,1.437-5.494,2.627c-1.582,1.165-2.631,2.446-3.118,3.806c-0.281,0.848-0.367,1.709-0.25,2.549
				c0.125,0.854,0.386,1.672,0.774,2.43c0.404,0.778,0.902,1.542,1.478,2.269c0.592,0.75,1.2,1.434,1.805,2.033
				c1.067,1.067,2.448,2.125,4.105,3.147c1.78,1.098,3.537,2.208,5.225,3.3c1.195,0.778,2.392,1.615,3.558,2.491
				c1.179,0.884,2.221,1.846,3.098,2.859c0.882,1.009,1.621,2.128,2.192,3.326c0.579,1.215,0.873,2.528,0.873,3.901
				c0,1.288-0.095,2.492-0.282,3.577c-0.198,1.15-0.688,2.287-1.456,3.378c-0.485,0.754-1.101,1.44-1.818,2.022
				c-0.769,0.618-1.47,1.149-2.146,1.628c-0.959,0.695-2.009,1.281-3.117,1.739c-1.119,0.463-2.226,0.877-3.29,1.229
				c-3.179,1.005-6.366,1.541-9.481,1.596C39.73,121.816,39.213,121.828,38.7,121.828z M26.437,117.495
				c-0.12,0-0.22,0.023-0.297,0.07c-0.151,0.092-0.242,0.209-0.285,0.367c-0.05,0.188-0.041,0.375,0.027,0.57
				c0.065,0.169,0.304,0.293,0.493,0.366c2.294,0.607,4.617,1.118,6.851,1.503c2.227,0.385,4.58,0.526,6.992,0.424
				c3.031-0.053,6.123-0.574,9.203-1.547c1.034-0.343,2.118-0.748,3.216-1.202c1.036-0.428,2.017-0.976,2.917-1.628
				c0.664-0.47,1.349-0.99,2.1-1.593c0.633-0.514,1.177-1.121,1.616-1.802c0.693-0.987,1.126-1.987,1.3-2.99
				c0.178-1.029,0.268-2.176,0.268-3.407c0-1.224-0.261-2.392-0.775-3.471c-0.533-1.115-1.22-2.158-2.044-3.1
				c-0.832-0.961-1.822-1.874-2.943-2.715c-1.149-0.862-2.328-1.687-3.503-2.452c-1.68-1.087-3.431-2.194-5.204-3.287
				c-1.724-1.063-3.166-2.169-4.286-3.29c-0.632-0.626-1.267-1.34-1.884-2.121c-0.615-0.775-1.148-1.594-1.583-2.432
				c-0.438-0.857-0.732-1.781-0.875-2.747c-0.139-0.997-0.04-2.01,0.294-3.017c0.559-1.561,1.726-3,3.472-4.286
				c1.73-1.264,3.686-2.199,5.813-2.783c1.996-0.581,4.014-0.931,5.991-1.038c1.96-0.107,3.663-0.025,5.063,0.244
				c2.396,0.382,4.321,1.417,5.703,3.072c1.408,1.689,1.812,3.816,1.2,6.321c-0.023,0.225,0.008,0.432,0.105,0.556
				c0.109,0.141,0.228,0.221,0.366,0.248c0.16,0.03,0.331,0.004,0.521-0.082c0.141-0.064,0.245-0.229,0.308-0.487l0.003-0.011
				c0.397-1.482,0.475-2.829,0.23-4.004c-0.247-1.187-0.717-2.21-1.437-3.129c-0.706-0.906-1.63-1.681-2.748-2.303
				c-1.145-0.631-2.411-1.13-3.764-1.482c-1.563-0.403-3.45-0.517-5.604-0.337c-2.178,0.179-4.367,0.632-6.509,1.349
				c-2.203,0.716-4.217,1.697-5.991,2.916c-1.746,1.198-2.982,2.606-3.674,4.184c-0.733,1.673-0.934,3.297-0.596,4.827
				c0.346,1.569,1.032,3.079,2.038,4.487c1.022,1.48,2.265,2.774,3.698,3.852c1.53,1.155,2.919,2.136,4.249,3
				c1.576,1.072,3.255,2.135,4.999,3.165c1.77,1.049,3.342,2.364,4.676,3.909c2.375,2.705,3.499,5.27,3.338,7.619
				c-0.169,2.347-1.173,4.397-2.985,6.095c-0.902,0.907-2.026,1.715-3.328,2.393c-1.272,0.666-2.699,1.244-4.239,1.72
				c-2.859,0.848-5.805,1.33-8.76,1.436c-2.379,0.104-4.686-0.045-6.849-0.442c-2.116-0.384-4.319-0.874-6.547-1.457
				C26.651,117.511,26.537,117.495,26.437,117.495z"/>
		</g>
		<g>
			<path style="fill:#FFFFFF;" d="M78.202,71.328c0.102-0.364,0.287-0.6,0.549-0.705c0.262-0.105,0.536-0.131,0.823-0.08
				c0.287,0.054,0.523,0.198,0.702,0.431c0.185,0.236,0.249,0.511,0.198,0.823c-0.523,1.988-1.085,4.133-1.685,6.435
				c-0.6,2.301-1.194,4.705-1.768,7.217c-0.262,1.305-0.523,2.614-0.785,3.919l3.217-1.254c3.505-1.36,7.06-2.716,10.667-4.079
				c0.734-0.102,1.194,0.131,1.379,0.709c0.179,0.575-0.019,1.072-0.594,1.487c-3.556,1.363-7.111,2.723-10.667,4.079
				c-1.519,0.578-3.032,1.178-4.551,1.807c0,0.262-0.026,0.549-0.077,0.862c-0.415,2.509-0.677,4.97-0.785,7.373
				c-0.102,1.676-0.102,3.268,0,4.784c0.109,1.519,0.338,2.956,0.709,4.315c0.575,2.196,1.449,3.792,2.63,4.784
				c1.175,0.996,2.47,1.516,3.881,1.57c1.2,0.051,2.458-0.185,3.766-0.709c1.302-0.52,2.611-1.2,3.919-2.04
				c1.57-1.044,3.045-2.221,4.43-3.527c1.385-1.309,2.553-2.512,3.492-3.61c0.523-0.575,1.072-0.68,1.647-0.313
				c0.575,0.367,0.651,0.916,0.236,1.647c-1.098,1.36-2.343,2.694-3.728,3.999c-1.385,1.309-2.86,2.486-4.43,3.53
				c-1.462,0.996-3.032,1.832-4.705,2.512c-2.196,0.833-4.29,1.098-6.275,0.782c-1.57-0.262-2.93-0.926-4.079-1.998
				c-1.155-1.072-2.017-2.474-2.592-4.197c-0.989-3.243-1.411-6.929-1.251-11.059c0.051-2.512,0.287-5.072,0.702-7.689v-0.077
				l-3.607,1.331c-0.421,0.105-0.76,0.08-1.021-0.077c-0.262-0.156-0.428-0.367-0.511-0.629c-0.077-0.262-0.064-0.536,0.045-0.823
				c0.102-0.287,0.338-0.511,0.702-0.667c1.621-0.575,3.217-1.175,4.788-1.803c0.364-1.727,0.728-3.425,1.098-5.097
				c0.575-2.563,1.175-5.033,1.8-7.414C77.104,75.499,77.678,73.316,78.202,71.328z"/>
			<path style="fill:#FFFFFF;" d="M82.037,118.705c-0.583,0-1.155-0.044-1.717-0.134c-1.668-0.278-3.127-0.993-4.342-2.126
				c-1.207-1.121-2.125-2.603-2.725-4.405c-1.008-3.306-1.437-7.082-1.276-11.236c0.046-2.256,0.245-4.605,0.593-6.989l-2.824,1.042
				c-0.604,0.155-1.073,0.109-1.451-0.117c-0.363-0.217-0.609-0.522-0.731-0.908c-0.111-0.38-0.092-0.764,0.054-1.15
				c0.146-0.413,0.475-0.736,0.973-0.95c1.572-0.558,3.093-1.129,4.551-1.709c0.346-1.638,0.692-3.251,1.044-4.84
				c0.571-2.546,1.178-5.046,1.805-7.433c0.6-2.258,1.148-4.339,1.65-6.246l0.082-0.313c0.182-0.647,0.56-0.919,0.845-1.034
				c0.346-0.14,0.716-0.175,1.096-0.108c0.413,0.078,0.761,0.292,1.012,0.619c0.266,0.338,0.369,0.757,0.294,1.208
				c-0.533,2.035-1.094,4.179-1.694,6.479c-0.645,2.472-1.222,4.828-1.765,7.202l-0.603,3.01l2.366-0.922
				c3.506-1.361,7.063-2.718,10.671-4.081l0.108-0.027c1.32-0.182,1.773,0.58,1.924,1.051c0.244,0.783-0.033,1.508-0.777,2.045
				l-0.114,0.062c-3.556,1.363-7.111,2.723-10.667,4.08c-1.415,0.538-2.841,1.102-4.242,1.679c-0.013,0.191-0.037,0.393-0.07,0.603
				c-0.41,2.476-0.672,4.937-0.78,7.315c-0.101,1.653-0.101,3.242,0,4.729c0.109,1.53,0.336,2.911,0.692,4.217
				c0.547,2.092,1.377,3.616,2.469,4.533c1.079,0.915,2.283,1.404,3.578,1.454c1.134,0.043,2.326-0.18,3.562-0.673
				c1.273-0.509,2.563-1.18,3.835-1.996c1.518-1.009,2.986-2.178,4.357-3.47c1.385-1.309,2.547-2.51,3.455-3.571
				c0.94-1.034,1.842-0.7,2.296-0.41c0.379,0.242,1.175,0.952,0.401,2.315c-1.146,1.431-2.417,2.793-3.819,4.116
				c-1.408,1.33-2.921,2.536-4.496,3.583c-1.472,1.003-3.086,1.865-4.793,2.559C85.199,118.389,83.584,118.705,82.037,118.705z
				 M73.678,92.34l-0.006,0.872c-0.412,2.599-0.646,5.163-0.696,7.621c-0.156,4.051,0.258,7.717,1.229,10.903
				c0.543,1.629,1.37,2.971,2.454,3.977c1.069,0.998,2.354,1.627,3.821,1.872c1.88,0.3,3.904,0.044,6.016-0.756
				c1.631-0.663,3.182-1.491,4.6-2.458c1.533-1.019,3.001-2.188,4.369-3.48c1.37-1.292,2.609-2.621,3.682-3.95
				c0.343-0.618,0.067-0.795-0.116-0.912c-0.302-0.194-0.59-0.229-1.008,0.229c-0.919,1.076-2.107,2.303-3.518,3.636
				c-1.412,1.331-2.925,2.535-4.497,3.58c-1.332,0.854-2.679,1.555-4.011,2.087c-1.368,0.547-2.709,0.795-3.973,0.744
				c-1.522-0.059-2.931-0.626-4.183-1.688c-1.252-1.052-2.191-2.748-2.791-5.04c-0.372-1.365-0.609-2.808-0.724-4.406
				c-0.103-1.531-0.104-3.163,0-4.851c0.109-2.41,0.375-4.911,0.792-7.424c0.046-0.284,0.069-0.547,0.069-0.78v-0.334l0.309-0.128
				c1.506-0.623,3.042-1.233,4.565-1.812c3.534-1.348,7.067-2.7,10.601-4.054c0.453-0.348,0.437-0.647,0.359-0.896
				c-0.052-0.164-0.143-0.442-0.78-0.369c-3.586,1.355-7.122,2.705-10.607,4.057l-4.068,1.586l0.965-4.815
				c0.548-2.397,1.127-4.763,1.774-7.245c0.6-2.302,1.162-4.447,1.686-6.436c0.019-0.13-0.011-0.264-0.108-0.387
				c-0.106-0.139-0.233-0.217-0.401-0.249c-0.192-0.034-0.371-0.017-0.543,0.053c-0.111,0.044-0.196,0.17-0.254,0.373l-0.079,0.3
				c-0.502,1.907-1.05,3.989-1.65,6.247c-0.624,2.373-1.228,4.862-1.795,7.395c-0.37,1.669-0.733,3.366-1.097,5.091l-0.055,0.262
				l-0.248,0.1c-1.546,0.619-3.163,1.228-4.807,1.811c-0.201,0.087-0.345,0.213-0.398,0.363c-0.072,0.191-0.083,0.356-0.036,0.516
				c0.044,0.139,0.136,0.25,0.287,0.34c0.142,0.084,0.359,0.092,0.644,0.021L73.678,92.34z"/>
		</g>
		<g>
			<path style="fill:#FFFFFF;" d="M99.535,107.49c-0.575,0.418-1.085,0.418-1.532,0c-0.44-0.418-0.511-0.942-0.191-1.57
				c1.041-1.203,2.062-2.378,3.058-3.53c0.989-1.149,2.036-2.276,3.134-3.374c0.421-0.418,0.862-0.533,1.334-0.351
				c0.472,0.182,0.734,0.587,0.785,1.216c0,1.88,0.115,3.699,0.351,5.451c0.236,1.752,0.696,3.438,1.372,5.059
				c0.421,1.047,0.932,2.052,1.532,3.019s1.424,1.845,2.47,2.627c0.887,0.68,1.845,1.139,2.866,1.372
				c1.015,0.236,1.947,0.354,2.783,0.354c1.36,0,2.56-0.393,3.607-1.178c1.047-0.782,1.96-1.698,2.745-2.745
				c1.047-1.411,1.883-3.019,2.509-4.823c0.632-1.803,1.123-3.492,1.494-5.059c0.102-0.734,0.223-1.57,0.351-2.512
				c0.128-0.942,0.274-1.778,0.434-2.509c0.051-0.367,0.204-0.616,0.466-0.747c0.262-0.128,0.523-0.156,0.785-0.077
				c0.262,0.077,0.498,0.223,0.709,0.431c0.211,0.211,0.313,0.498,0.313,0.862c0,1.047,0.064,2.186,0.198,3.412
				c0.128,1.229,0.351,2.47,0.664,3.728c0.313,1.254,0.721,2.47,1.219,3.645c0.492,1.178,1.111,2.237,1.838,3.179
				c0.734,0.942,1.596,1.724,2.592,2.352c0.989,0.629,2.119,0.993,3.37,1.098c0.945,0.105,1.909-0.013,2.904-0.354
				c0.996-0.338,1.985-0.795,2.981-1.372c0.938-0.575,1.858-1.226,2.745-1.96c0.887-0.731,1.749-1.491,2.592-2.276
				c0.938-0.942,1.826-1.854,2.662-2.745c0.836-0.887,1.545-1.698,2.119-2.432c0.313-0.313,0.613-0.469,0.9-0.469
				s0.536,0.105,0.747,0.313c0.211,0.211,0.326,0.472,0.351,0.785c0.026,0.313-0.089,0.629-0.351,0.942
				c-1.149,1.36-2.419,2.758-3.805,4.197c-1.385,1.436-2.834,2.758-4.354,3.961c-1.513,1.149-3.07,2.078-4.666,2.783
				c-1.596,0.705-3.23,1.005-4.903,0.903c-1.36-0.105-2.77-0.523-4.232-1.254c-1.468-0.734-2.617-1.676-3.453-2.825
				c-0.785-1.047-1.398-2.065-1.845-3.061c-0.447-0.993-0.798-1.934-1.06-2.821c-0.102-0.316-0.211-0.642-0.313-0.983
				c-0.102-0.338-0.211-0.693-0.313-1.056c-0.421,1.724-0.996,3.412-1.724,5.059c-0.734,1.647-1.73,3.099-2.981,4.354
				c-1.206,1.203-2.566,2.078-4.079,2.627c-1.519,0.549-3.064,0.772-4.628,0.667c-1.519-0.105-2.956-0.485-4.315-1.136
				c-1.36-0.654-2.566-1.583-3.607-2.786c-1.155-1.411-2.068-3.058-2.751-4.941c-0.523-1.36-0.887-2.745-1.098-4.159
				c-0.204-1.411-0.364-2.796-0.466-4.156c-0.734,0.785-1.455,1.583-2.158,2.391C100.984,105.83,100.263,106.654,99.535,107.49z"/>
			<path style="fill:#FFFFFF;" d="M116.832,120.329c-0.259,0-0.519-0.008-0.778-0.026c-1.571-0.109-3.084-0.507-4.498-1.184
				c-1.423-0.685-2.691-1.664-3.769-2.91c-1.187-1.448-2.14-3.16-2.843-5.098c-0.527-1.369-0.906-2.804-1.123-4.255
				c-0.156-1.077-0.279-2.087-0.373-3.058c-0.466,0.511-0.927,1.027-1.379,1.547l-2.241,2.55c-1.042,0.756-1.805,0.301-2.168-0.039
				c-0.607-0.576-0.711-1.343-0.295-2.162l0.067-0.101l3.058-3.53c0.991-1.151,2.054-2.295,3.159-3.4
				c0.71-0.706,1.406-0.643,1.868-0.464c0.457,0.176,1.02,0.604,1.104,1.642c0.001,1.908,0.118,3.72,0.348,5.425
				c0.228,1.692,0.678,3.352,1.338,4.934c0.41,1.018,0.912,2.007,1.495,2.948c0.567,0.914,1.355,1.751,2.345,2.49
				c0.834,0.639,1.733,1.07,2.678,1.286c2.505,0.583,4.396,0.451,5.979-0.736c0.998-0.746,1.888-1.635,2.645-2.645
				c1.009-1.359,1.829-2.937,2.437-4.687c0.603-1.721,1.101-3.407,1.479-5.01l0.342-2.464c0.125-0.923,0.273-1.78,0.441-2.548
				c0.086-0.633,0.445-0.944,0.73-1.087c0.386-0.188,0.773-0.225,1.155-0.107c0.331,0.097,0.64,0.283,0.913,0.553
				c0.307,0.307,0.462,0.716,0.462,1.218c0,1.044,0.065,2.174,0.195,3.358c0.124,1.188,0.343,2.419,0.652,3.662
				c0.302,1.213,0.704,2.414,1.194,3.57c0.465,1.116,1.062,2.148,1.773,3.069c0.693,0.889,1.522,1.641,2.463,2.235
				c0.912,0.58,1.97,0.924,3.146,1.023c0.89,0.1,1.767-0.009,2.701-0.33c0.955-0.324,1.928-0.772,2.892-1.332
				c0.93-0.57,1.834-1.215,2.677-1.913c0.852-0.702,1.716-1.46,2.569-2.256c0.921-0.925,1.805-1.834,2.639-2.722
				c0.835-0.887,1.539-1.693,2.089-2.398c0.89-0.899,1.78-0.808,2.392-0.204c0.296,0.295,0.463,0.665,0.499,1.101
				c0.037,0.451-0.12,0.889-0.466,1.303c-1.126,1.333-2.414,2.754-3.827,4.223c-1.407,1.459-2.889,2.807-4.404,4.006
				c-1.544,1.173-3.148,2.129-4.774,2.849c-1.661,0.733-3.394,1.052-5.135,0.945c-1.427-0.11-2.913-0.55-4.426-1.306
				c-1.53-0.766-2.753-1.767-3.634-2.978c-0.797-1.063-1.436-2.125-1.896-3.151c-0.447-0.993-0.812-1.963-1.083-2.884l-0.068-0.208
				c-0.019-0.057-0.037-0.113-0.056-0.171c-0.359,1.173-0.791,2.332-1.289,3.459c-0.756,1.696-1.794,3.211-3.084,4.504
				c-1.252,1.249-2.686,2.172-4.263,2.744C119.557,120.087,118.197,120.329,116.832,120.329z M104.264,101.452l0.085,1.137
				c0.097,1.296,0.249,2.645,0.462,4.122c0.206,1.377,0.566,2.74,1.07,4.051c0.667,1.84,1.565,3.454,2.671,4.804
				c0.979,1.132,2.138,2.028,3.437,2.652c1.299,0.622,2.689,0.988,4.133,1.088c1.485,0.101,2.973-0.114,4.423-0.638
				c1.438-0.522,2.749-1.367,3.896-2.511c1.203-1.206,2.172-2.621,2.877-4.203c0.71-1.608,1.281-3.282,1.694-4.974l0.453-1.851
				l0.515,1.834c0.088,0.314,0.181,0.622,0.271,0.917l0.039,0.129c0.078,0.26,0.159,0.509,0.238,0.751l0.072,0.223
				c0.263,0.89,0.611,1.818,1.04,2.77c0.43,0.959,1.032,1.958,1.789,2.966c0.791,1.085,1.892,1.984,3.277,2.677
				c1.396,0.698,2.758,1.103,4.047,1.203c1.578,0.098,3.149-0.194,4.662-0.862c1.555-0.688,3.091-1.604,4.566-2.724
				c1.472-1.166,2.92-2.483,4.296-3.91c1.398-1.454,2.671-2.857,3.782-4.173c0.17-0.203,0.25-0.398,0.234-0.577
				c-0.016-0.199-0.081-0.349-0.206-0.473c-0.227-0.222-0.505-0.278-0.94,0.156c-0.538,0.694-1.241,1.5-2.109,2.421
				c-0.839,0.894-1.729,1.81-2.672,2.755c-0.881,0.822-1.761,1.594-2.627,2.308c-0.878,0.727-1.821,1.4-2.802,2
				c-1.032,0.599-2.065,1.074-3.082,1.419c-1.059,0.363-2.111,0.489-3.121,0.378c-1.324-0.112-2.534-0.507-3.583-1.173
				c-1.038-0.654-1.953-1.485-2.718-2.466c-0.767-0.992-1.407-2.1-1.905-3.294c-0.509-1.201-0.928-2.452-1.243-3.716
				c-0.32-1.288-0.548-2.565-0.676-3.797c-0.133-1.217-0.201-2.384-0.201-3.464c0-0.306-0.095-0.437-0.167-0.508
				c-0.152-0.149-0.319-0.253-0.496-0.304c-0.14-0.043-0.274-0.027-0.425,0.046c-0.042,0.021-0.15,0.075-0.19,0.366
				c-0.168,0.78-0.313,1.611-0.434,2.507l-0.352,2.514c-0.395,1.684-0.903,3.402-1.517,5.156c-0.64,1.845-1.508,3.512-2.579,4.955
				c-0.816,1.088-1.773,2.045-2.847,2.847c-1.808,1.356-4.014,1.561-6.802,0.91c-1.083-0.247-2.113-0.739-3.057-1.462
				c-1.085-0.81-1.958-1.74-2.591-2.76c-0.614-0.989-1.142-2.031-1.571-3.096c-0.691-1.656-1.165-3.4-1.404-5.179
				c-0.236-1.75-0.355-3.606-0.355-5.519c-0.043-0.518-0.271-0.675-0.465-0.75c-0.201-0.078-0.451-0.108-0.802,0.24
				c-1.086,1.086-2.132,2.212-3.107,3.345l-3.016,3.482c-0.234,0.496-0.084,0.74,0.115,0.929c0.169,0.159,0.392,0.303,0.85-0.011
				l2.119-2.428c0.706-0.812,1.432-1.614,2.169-2.404L104.264,101.452z"/>
		</g>
		<g>
			<path style="fill:#FFFFFF;" d="M182.137,100.899c0,0.785-0.345,1.178-1.021,1.178c-0.262,0-0.511-0.093-0.747-0.274
				c-0.236-0.182-0.377-0.485-0.434-0.903c-0.415-1.985-1.251-3.501-2.509-4.548c-1.251-1.047-2.77-1.57-4.545-1.57
				c-1.155,0-2.541,0.38-4.162,1.139c-1.621,0.756-3.173,1.778-4.666,3.058c-1.487,1.283-2.758,2.812-3.805,4.59
				s-1.57,3.686-1.57,5.726c0,0.575,0.121,1.254,0.357,2.04c0.236,0.785,0.626,1.542,1.175,2.273
				c0.549,0.734,1.309,1.363,2.273,1.883c0.97,0.523,2.209,0.785,3.728,0.785c1.724,0,3.415-0.38,5.062-1.136
				c1.647-0.76,3.198-1.714,4.666-2.863c1.462-1.152,2.809-2.381,4.041-3.686c1.226-1.309,2.311-2.512,3.256-3.61
				c-0.16-1.934-0.236-3.894-0.236-5.882c-0.057-4.392,0.326-8.787,1.136-13.179c0.811-4.392,1.973-8.551,3.492-12.47
				c0.415-1.047,0.964-2.34,1.647-3.884c0.677-1.542,1.513-3.019,2.509-4.43c0.836-1.203,1.749-2.209,2.745-3.023
				c0.996-0.808,2.094-1.216,3.294-1.216c1.672,0,2.853,0.59,3.53,1.765c0.677,1.178,1.021,2.681,1.021,4.51
				c0,1.883-0.287,3.99-0.862,6.316c-0.581,2.327-1.245,4.59-2.004,6.786c-0.76,2.196-1.5,4.156-2.234,5.882
				c-0.734,1.727-1.283,2.956-1.647,3.686c-0.677,1.411-1.36,2.758-2.036,4.041c-0.683,1.28-1.417,2.547-2.196,3.805
				c-0.785,1.254-1.666,2.547-2.63,3.881c-0.97,1.334-2.081,2.758-3.332,4.274c0.153,1.519,0.536,2.93,1.136,4.239
				c0.6,1.305,1.372,2.458,2.311,3.45c0.945,0.993,2.004,1.765,3.179,2.314c1.175,0.549,2.368,0.823,3.568,0.823
				c1.519,0,3.019-0.338,4.513-1.021c1.487-0.677,2.936-1.567,4.354-2.665c0.677-0.523,1.462-1.229,2.349-2.119
				c0.887-0.887,1.743-1.736,2.553-2.547s1.538-1.516,2.196-2.119c0.651-0.6,1.111-0.903,1.372-0.903
				c0.728,0,1.098,0.367,1.098,1.098c0,0.472-0.37,1.139-1.098,2.001c-0.734,0.865-1.596,1.752-2.592,2.668
				c-0.989,0.916-1.985,1.791-2.981,2.627c-0.989,0.836-1.749,1.439-2.273,1.803c-0.523,0.367-1.072,0.76-1.647,1.178
				c-0.575,0.418-1.245,0.798-1.998,1.136c-0.76,0.342-1.621,0.629-2.592,0.865c-0.97,0.233-2.081,0.351-3.332,0.351
				c-1.411,0-2.783-0.3-4.117-0.9c-1.334-0.603-2.553-1.414-3.651-2.432c-1.098-1.021-2.024-2.183-2.783-3.492
				c-0.76-1.305-1.213-2.694-1.372-4.156c-1.258,1.411-2.585,2.745-4.002,3.999c-1.411,1.254-2.86,2.381-4.354,3.374
				c-1.487,0.993-3.007,1.778-4.545,2.352c-1.545,0.575-3.077,0.862-4.59,0.862c-1.57,0-2.968-0.262-4.2-0.782
				c-1.226-0.523-2.26-1.242-3.096-2.158c-0.836-0.916-1.462-1.947-1.883-3.099c-0.421-1.149-0.626-2.352-0.626-3.61
				c0-1.356,0.287-2.821,0.862-4.392c1.934-4.025,4.354-7.06,7.258-9.1c2.898-2.04,5.739-3.058,8.509-3.058
				c1.462,0,2.758,0.262,3.881,0.785s2.055,1.191,2.783,1.998c0.734,0.814,1.309,1.688,1.73,2.63
				c0.415,0.942,0.677,1.829,0.785,2.665V100.899z M185.348,102.47c2.981-3.872,5.522-7.989,7.609-12.355
				c2.094-4.366,3.843-8.796,5.26-13.297c0.102-0.364,0.255-0.913,0.466-1.647c0.211-0.731,0.409-1.529,0.587-2.391
				c0.185-0.865,0.357-1.765,0.511-2.707c0.16-0.942,0.236-1.832,0.236-2.668c0-0.993-0.153-1.934-0.472-2.825
				c-0.313-0.887-0.887-1.331-1.724-1.331c-0.626,0-1.251,0.249-1.883,0.744c-0.626,0.498-1.226,1.139-1.8,1.921
				c-0.996,1.363-1.883,2.863-2.668,4.51s-1.36,2.943-1.73,3.884c-1.513,4.028-2.636,8.184-3.37,12.47
				c-0.734,4.29-1.098,8.605-1.098,12.946c0,0.418,0,0.862,0,1.331c0,0.472,0.026,0.916,0.077,1.334V102.47z"/>
			<path style="fill:#FFFFFF;" d="M195.549,119.519c-1.476,0-2.93-0.317-4.322-0.944c-1.381-0.624-2.655-1.472-3.786-2.521
				c-1.127-1.048-2.094-2.261-2.876-3.607c-0.604-1.039-1.03-2.145-1.271-3.301c-1.079,1.161-2.199,2.257-3.34,3.268
				c-1.437,1.277-2.92,2.427-4.408,3.416c-1.511,1.008-3.075,1.817-4.647,2.404c-3.244,1.208-6.624,1.144-9.159,0.072
				c-1.293-0.552-2.393-1.319-3.271-2.281c-0.875-0.957-1.542-2.056-1.984-3.264c-0.435-1.187-0.656-2.459-0.656-3.782
				c0-1.41,0.3-2.946,0.892-4.564c1.983-4.132,4.48-7.258,7.44-9.337c2.969-2.089,5.928-3.148,8.796-3.148
				c1.531,0,2.908,0.28,4.092,0.832c1.185,0.552,2.175,1.264,2.944,2.116c0.764,0.847,1.374,1.776,1.814,2.761
				c0.314,0.713,0.546,1.404,0.693,2.065c-0.001-0.202-0.002-0.404-0.002-0.606c-0.058-4.378,0.327-8.844,1.144-13.27
				c0.815-4.415,1.999-8.641,3.519-12.56c0.415-1.049,0.956-2.325,1.655-3.906c0.688-1.567,1.549-3.087,2.558-4.517
				c0.855-1.231,1.811-2.283,2.837-3.122c1.089-0.882,2.303-1.329,3.61-1.329c1.859,0,3.193,0.678,3.964,2.016
				c0.722,1.255,1.087,2.857,1.087,4.759c0,1.916-0.295,4.081-0.876,6.436c-0.594,2.377-1.271,4.674-2.017,6.829
				c-0.785,2.269-1.521,4.204-2.247,5.915c-0.746,1.755-1.289,2.97-1.66,3.714c-0.636,1.325-1.323,2.69-2.041,4.051
				c-0.667,1.251-1.412,2.541-2.214,3.834c-0.766,1.224-1.632,2.502-2.649,3.911c-0.926,1.274-2.008,2.665-3.218,4.136
				c0.159,1.369,0.52,2.671,1.071,3.875c0.573,1.249,1.32,2.364,2.22,3.315c0.897,0.943,1.916,1.686,3.027,2.204
				c2.512,1.176,5.139,0.955,7.662-0.199c1.436-0.653,2.867-1.53,4.255-2.605c0.671-0.519,1.444-1.217,2.301-2.077l2.555-2.548
				c0.816-0.816,1.549-1.527,2.211-2.134c0.787-0.725,1.299-1.035,1.711-1.035c1,0,1.598,0.598,1.598,1.598
				c0,0.603-0.387,1.341-1.216,2.324c-0.745,0.878-1.632,1.791-2.635,2.714c-0.954,0.883-1.964,1.772-2.999,2.642
				c-1.015,0.858-1.771,1.457-2.309,1.831c-0.52,0.364-1.065,0.755-1.637,1.171c-0.599,0.435-1.301,0.834-2.088,1.188
				c-0.784,0.352-1.686,0.653-2.679,0.895C197.989,119.396,196.829,119.519,195.549,119.519z M183.999,106.867l0.122,1.117
				c0.153,1.398,0.594,2.73,1.309,3.959c0.731,1.261,1.638,2.397,2.691,3.377c1.051,0.975,2.234,1.764,3.517,2.343
				c1.262,0.567,2.578,0.855,3.911,0.855c1.201,0,2.282-0.113,3.216-0.337c0.932-0.227,1.774-0.507,2.503-0.834
				c0.725-0.326,1.366-0.69,1.909-1.084c0.576-0.42,1.128-0.814,1.653-1.183c0.507-0.352,1.259-0.949,2.237-1.775
				c1.023-0.86,2.021-1.738,2.964-2.612c0.975-0.896,1.832-1.779,2.551-2.625c0.852-1.009,0.979-1.484,0.979-1.677
				c0-0.453-0.146-0.598-0.598-0.598c0.004,0.001-0.252,0.05-1.034,0.771c-0.653,0.6-1.376,1.3-2.181,2.105l-2.554,2.547
				c-0.886,0.889-1.692,1.617-2.396,2.161c-1.448,1.123-2.947,2.04-4.452,2.725c-2.79,1.276-5.724,1.494-8.501,0.196
				c-1.224-0.572-2.344-1.387-3.329-2.422c-0.976-1.032-1.783-2.238-2.402-3.586c-0.626-1.364-1.023-2.843-1.18-4.397l-0.021-0.208
				l0.133-0.161c1.251-1.516,2.366-2.946,3.313-4.249c1.004-1.39,1.857-2.65,2.61-3.853c0.789-1.274,1.522-2.544,2.179-3.775
				c0.711-1.347,1.394-2.701,2.026-4.021c0.36-0.723,0.91-1.954,1.639-3.666c0.718-1.689,1.444-3.603,2.222-5.85
				c0.735-2.127,1.405-4.396,1.991-6.743c0.562-2.275,0.847-4.36,0.847-6.195c0-1.726-0.321-3.159-0.954-4.261
				c-0.587-1.019-1.6-1.514-3.097-1.514c-1.088,0-2.063,0.361-2.979,1.104c-0.952,0.778-1.845,1.761-2.648,2.919
				c-0.973,1.377-1.801,2.838-2.462,4.346c-0.694,1.57-1.23,2.834-1.64,3.867c-1.495,3.857-2.662,8.022-3.466,12.376
				c-0.805,4.361-1.184,8.762-1.127,13.082c0,2.002,0.079,3.967,0.234,5.847l0.018,0.209l-0.137,0.159
				c-0.947,1.101-2.047,2.32-3.27,3.625c-1.244,1.319-2.622,2.576-4.096,3.737c-1.499,1.173-3.102,2.157-4.766,2.925
				c-1.708,0.785-3.482,1.182-5.272,1.182c-1.591,0-2.925-0.284-3.965-0.845c-1.027-0.554-1.846-1.235-2.436-2.024
				c-0.578-0.769-1-1.586-1.253-2.428c-0.254-0.846-0.378-1.561-0.378-2.184c0-2.121,0.552-4.132,1.64-5.98
				c1.066-1.811,2.381-3.396,3.909-4.714c1.531-1.313,3.14-2.366,4.781-3.133c1.704-0.798,3.135-1.186,4.374-1.186
				c1.891,0,3.528,0.567,4.866,1.687c1.339,1.115,2.241,2.74,2.677,4.829c0.046,0.322,0.127,0.515,0.25,0.609
				c0.15,0.115,0.294,0.171,0.442,0.171c0.285,0,0.521-0.051,0.521-0.678v-0.393c-0.097-0.719-0.349-1.57-0.743-2.464
				c-0.396-0.887-0.95-1.728-1.644-2.497c-0.678-0.752-1.561-1.385-2.623-1.88c-1.052-0.49-2.287-0.738-3.67-0.738
				c-2.658,0-5.424,0.998-8.222,2.966c-2.818,1.979-5.206,4.977-7.095,8.908c-0.533,1.463-0.813,2.883-0.813,4.175
				c0,1.205,0.2,2.361,0.595,3.438c0.397,1.086,0.997,2.074,1.783,2.935c0.781,0.855,1.764,1.54,2.923,2.035
				c2.297,0.97,5.415,1.03,8.419-0.089c1.5-0.56,2.995-1.333,4.442-2.299c1.45-0.963,2.896-2.084,4.299-3.331
				c1.363-1.207,2.695-2.539,3.961-3.958L183.999,106.867z M172.881,95.281c-1.074,0-2.403,0.367-3.95,1.092
				c-1.56,0.729-3.091,1.732-4.553,2.985c-1.443,1.245-2.688,2.747-3.699,4.464c-0.996,1.691-1.501,3.533-1.501,5.472
				c0,0.517,0.113,1.154,0.336,1.896c0.219,0.729,0.588,1.44,1.096,2.116c0.502,0.672,1.212,1.259,2.11,1.744
				c0.892,0.481,2.066,0.725,3.49,0.725c1.645,0,3.278-0.367,4.854-1.091c1.593-0.735,3.13-1.678,4.566-2.802
				c1.435-1.13,2.776-2.354,3.985-3.636c1.153-1.231,2.197-2.386,3.104-3.435c-0.083-1.053-0.144-2.132-0.18-3.227
				c-0.2,0.633-0.702,0.994-1.424,0.994c-0.372,0-0.726-0.127-1.052-0.379c-0.337-0.259-0.547-0.673-0.624-1.23
				c-0.384-1.829-1.171-3.265-2.333-4.232C175.953,95.77,174.532,95.281,172.881,95.281z M184.848,103.938v-1.549
				c-0.05-0.375-0.076-0.845-0.076-1.334v-1.331c0-4.364,0.372-8.748,1.104-13.03c0.736-4.297,1.879-8.523,3.396-12.561
				c0.391-0.993,0.978-2.311,1.747-3.924c0.796-1.669,1.709-3.213,2.716-4.589c0.6-0.817,1.236-1.496,1.893-2.018
				c0.724-0.566,1.461-0.853,2.194-0.853s1.709,0.289,2.195,1.665c0.331,0.925,0.5,1.932,0.5,2.991c0,0.875-0.081,1.8-0.242,2.751
				c-0.146,0.893-0.314,1.787-0.515,2.728c-0.176,0.845-0.376,1.661-0.597,2.424l-0.465,1.644c-1.428,4.536-3.206,9.032-5.29,13.377
				c-2.087,4.362-4.665,8.549-7.664,12.444L184.848,103.938z M197.822,63.75c-0.512,0-1.026,0.208-1.574,0.637
				c-0.585,0.465-1.159,1.079-1.706,1.824c-0.969,1.326-1.851,2.816-2.62,4.429c-0.759,1.593-1.337,2.889-1.717,3.853
				c-1.491,3.971-2.616,8.136-3.342,12.371c-0.724,4.227-1.091,8.554-1.091,12.861v1.331c0,0.007,0,0.015,0,0.022
				c2.608-3.527,4.871-7.283,6.734-11.18c2.063-4.303,3.824-8.755,5.234-13.231l0.462-1.634c0.214-0.74,0.408-1.532,0.579-2.354
				c0.197-0.928,0.363-1.806,0.507-2.686c0.151-0.899,0.229-1.769,0.229-2.587c0-0.944-0.148-1.837-0.442-2.656
				C198.83,64.057,198.444,63.75,197.822,63.75z"/>
		</g>
		<g>
			<path style="fill:#FFFFFF;" d="M231.865,105.214c-1.098,0.993-2.407,1.752-3.926,2.276c-1.513,0.523-3.109,0.862-4.781,1.018
				c-1.679,0.156-3.351,0.169-5.024,0.038c-1.672-0.128-3.217-0.351-4.628-0.667c-0.102,0.265-0.166,0.539-0.192,0.823
				c-0.032,0.29-0.07,0.565-0.121,0.827c-0.211,1.254-0.115,2.458,0.274,3.607c0.396,1.152,1.009,2.158,1.845,3.019
				c0.836,0.865,1.858,1.57,3.058,2.119c1.2,0.549,2.509,0.875,3.926,0.98c3.811,0.364,7.635-0.211,11.452-1.727
				c2.662-1.044,5.292-2.56,7.884-4.548c2.585-1.988,5.183-4.392,7.801-7.217c0.262-0.313,0.549-0.472,0.862-0.472
				c0.319,0,0.575,0.093,0.785,0.274c0.211,0.185,0.338,0.447,0.396,0.785c0.051,0.342-0.057,0.667-0.313,0.98
				c-1.992,2.04-3.951,3.897-5.886,5.57c-1.934,1.676-3.894,3.112-5.886,4.315c-2.56,1.567-5.19,2.732-7.884,3.492
				c-2.694,0.756-5.63,1.031-8.822,0.823c-2.355-0.16-4.315-0.642-5.886-1.452c-1.564-0.811-2.821-1.816-3.76-3.019
				c-0.894-1.149-1.494-2.407-1.807-3.766c-0.313-1.36-0.396-2.719-0.236-4.079c0.313-2.56,1.226-4.941,2.745-7.137
				c1.519-2.196,3.294-4.105,5.337-5.726c0.466-0.367,0.938-0.718,1.411-1.06c0.472-0.338,0.964-0.638,1.487-0.903
				c0.836-0.469,1.794-0.9,2.866-1.293c1.072-0.393,2.158-0.654,3.256-0.785s2.158-0.077,3.179,0.156
				c1.015,0.236,1.947,0.747,2.783,1.529c0.938,0.89,1.5,1.845,1.685,2.863c0.185,1.021,0.115,2.04-0.198,3.061
				c-0.313,1.018-0.811,1.988-1.487,2.901C233.377,103.737,232.65,104.535,231.865,105.214z M223.158,96.428
				c-1.832,1.047-3.53,2.355-5.1,3.923c-1.57,1.57-2.796,3.323-3.69,5.257c1.309,0.313,2.668,0.523,4.079,0.626
				c1.417,0.105,2.828,0.08,4.239-0.077s2.77-0.456,4.079-0.903c1.309-0.444,2.509-1.06,3.607-1.842
				c0.523-0.367,1.047-0.878,1.57-1.532c0.523-0.651,0.913-1.331,1.175-2.04c0.262-0.705,0.37-1.424,0.313-2.154
				c-0.051-0.734-0.389-1.385-1.015-1.963c-0.632-0.575-1.347-0.929-2.158-1.06c-0.811-0.128-1.634-0.128-2.47,0
				c-0.836,0.131-1.66,0.367-2.47,0.709C224.504,95.709,223.783,96.064,223.158,96.428z"/>
			<path style="fill:#FFFFFF;" d="M224.69,122.097c-0.67,0-1.349-0.022-2.037-0.067c-2.418-0.164-4.464-0.671-6.083-1.507
				c-1.63-0.845-2.95-1.907-3.925-3.156c-0.93-1.196-1.569-2.529-1.899-3.961c-0.327-1.423-0.409-2.853-0.244-4.25
				c0.321-2.637,1.273-5.113,2.829-7.362c1.546-2.235,3.375-4.197,5.438-5.833c0.473-0.373,0.95-0.728,1.429-1.073
				c0.504-0.361,1.012-0.669,1.555-0.944c0.834-0.469,1.823-0.915,2.92-1.316c1.104-0.404,2.236-0.677,3.367-0.812
				c1.144-0.137,2.271-0.08,3.351,0.166c1.102,0.256,2.115,0.812,3.014,1.651c1.016,0.965,1.632,2.02,1.835,3.139
				c0.197,1.085,0.126,2.194-0.211,3.297c-0.329,1.068-0.855,2.095-1.563,3.052c-0.711,0.952-1.473,1.782-2.268,2.471
				c-1.144,1.034-2.521,1.833-4.094,2.374c-1.538,0.532-3.187,0.883-4.897,1.043c-1.699,0.158-3.418,0.17-5.109,0.039
				c-1.505-0.115-2.93-0.31-4.242-0.58c-0.019,0.094-0.032,0.188-0.041,0.282c-0.034,0.314-0.075,0.603-0.128,0.877
				c-0.193,1.146-0.107,2.278,0.257,3.351c0.369,1.076,0.951,2.029,1.73,2.832c0.787,0.813,1.765,1.491,2.906,2.013
				c1.137,0.52,2.4,0.835,3.755,0.936c3.735,0.356,7.507-0.214,11.23-1.693c2.612-1.024,5.224-2.531,7.764-4.48
				c2.551-1.962,5.154-4.371,7.738-7.16c0.669-0.801,1.712-0.78,2.341-0.236c0.296,0.26,0.484,0.622,0.563,1.079
				c0.072,0.491-0.069,0.952-0.42,1.38c-2.037,2.09-4.028,3.974-5.945,5.631c-1.942,1.683-3.945,3.151-5.953,4.365
				c-2.586,1.583-5.28,2.776-8.007,3.545C229.49,121.792,227.159,122.097,224.69,122.097z M229.25,92.741
				c-0.361,0-0.727,0.021-1.093,0.065c-1.055,0.125-2.111,0.381-3.143,0.758c-1.047,0.383-1.987,0.807-2.793,1.259
				c-0.517,0.261-0.981,0.544-1.441,0.874c-0.465,0.336-0.933,0.683-1.393,1.046c-1.983,1.574-3.745,3.464-5.235,5.618
				c-1.463,2.115-2.357,4.44-2.659,6.913c-0.15,1.281-0.074,2.596,0.227,3.907c0.297,1.29,0.874,2.491,1.714,3.571
				c0.885,1.134,2.095,2.104,3.596,2.882c1.496,0.773,3.41,1.243,5.689,1.397c3.11,0.203,6.025-0.069,8.653-0.806
				c2.638-0.744,5.248-1.9,7.758-3.437c1.962-1.186,3.919-2.621,5.818-4.267c1.896-1.64,3.866-3.504,5.855-5.541
				c0.193-0.24,0.194-0.435,0.177-0.558c-0.038-0.218-0.114-0.379-0.232-0.482c-0.119-0.104-0.261-0.15-0.455-0.15
				c-0.058,0-0.232,0-0.478,0.293c-2.64,2.849-5.284,5.296-7.88,7.292c-2.615,2.006-5.309,3.56-8.006,4.617
				c-3.869,1.537-7.796,2.132-11.683,1.759c-1.463-0.108-2.841-0.453-4.086-1.023c-1.255-0.574-2.335-1.323-3.209-2.226
				c-0.881-0.909-1.54-1.987-1.958-3.205c-0.418-1.233-0.518-2.528-0.295-3.852c0.051-0.261,0.088-0.521,0.117-0.797
				c0.028-0.317,0.104-0.64,0.222-0.949l0.154-0.404l0.422,0.095c1.389,0.311,2.922,0.532,4.558,0.656
				c1.636,0.127,3.296,0.116,4.939-0.038c1.632-0.152,3.201-0.486,4.664-0.993c1.446-0.498,2.709-1.229,3.754-2.174l0.008-0.007
				c0.752-0.651,1.446-1.408,2.123-2.314c0.64-0.865,1.114-1.791,1.41-2.75c0.294-0.961,0.354-1.885,0.183-2.825
				c-0.164-0.905-0.681-1.777-1.537-2.59c-0.765-0.715-1.625-1.188-2.552-1.404C230.543,92.812,229.903,92.741,229.25,92.741z
				 M220.153,106.796c-0.582,0-1.164-0.022-1.743-0.065c-1.418-0.103-2.817-0.317-4.158-0.638l-0.594-0.142l0.256-0.554
				c0.918-1.987,2.193-3.804,3.79-5.401c1.6-1.596,3.351-2.942,5.205-4.002c0.647-0.376,1.393-0.742,2.214-1.084
				c0.843-0.355,1.713-0.604,2.586-0.741c0.885-0.135,1.767-0.135,2.626,0c0.898,0.145,1.711,0.543,2.415,1.183
				c0.723,0.667,1.118,1.439,1.178,2.298c0.062,0.787-0.054,1.583-0.343,2.363c-0.28,0.76-0.702,1.493-1.254,2.179
				c-0.55,0.687-1.113,1.235-1.673,1.628c-1.137,0.81-2.395,1.452-3.733,1.906c-1.33,0.454-2.738,0.766-4.184,0.927
				C221.883,106.748,221.018,106.796,220.153,106.796z M215.092,105.258c1.101,0.233,2.238,0.393,3.391,0.476
				c1.379,0.103,2.774,0.078,4.147-0.075s2.71-0.448,3.973-0.879c1.247-0.423,2.417-1.021,3.478-1.776
				c0.485-0.34,0.979-0.823,1.47-1.438c0.484-0.602,0.854-1.241,1.097-1.9c0.238-0.643,0.334-1.296,0.283-1.942
				c-0.043-0.609-0.322-1.142-0.855-1.634c-0.563-0.512-1.186-0.819-1.898-0.934c-0.753-0.119-1.533-0.118-2.315,0
				c-0.79,0.124-1.582,0.351-2.352,0.675c-0.783,0.327-1.489,0.672-2.1,1.028l-0.004,0.002c-1.777,1.016-3.459,2.309-4.995,3.842
				C217.048,102.065,215.934,103.595,215.092,105.258z"/>
		</g>
		<g>
			<path style="fill:#FFFFFF;" d="M251.475,106.941c-0.421,0.418-0.811,0.626-1.175,0.626c-0.734,0-1.098-0.364-1.098-1.098
				c0-0.262,0.102-0.523,0.313-0.785c2.145-2.352,3.83-4.181,5.056-5.49c1.232-1.305,2.368-2.014,3.415-2.119
				c0.785,0.105,1.213,0.434,1.296,0.983c0.077,0.549,0.089,1.372,0.038,2.47c-0.313,3.345-0.511,5.57-0.587,6.668
				c-0.083,1.098-0.198,2.273-0.357,3.53c1.519-3.137,3.007-5.975,4.475-8.512c1.462-2.534,2.911-4.692,4.354-6.47
				c1.436-1.778,2.898-3.163,4.392-4.159c1.487-0.993,3.019-1.516,4.59-1.567c1.462,0,2.758,0.287,3.881,0.862
				c1.123,0.575,2.158,1.478,3.096,2.707c0.945,1.229,1.845,2.812,2.707,4.746c0.862,1.934,1.819,4.286,2.866,7.057
				c0.677,1.988,1.372,3.546,2.075,4.67c0.709,1.123,1.372,1.96,2.004,2.509c0.626,0.549,1.226,0.903,1.8,1.06
				s1.098,0.236,1.57,0.236c0.785,0,1.698-0.236,2.745-0.705c1.047-0.472,2.145-1.127,3.294-1.963s2.33-1.803,3.53-2.901
				c1.206-1.098,2.33-2.247,3.377-3.453c0.262-0.259,0.574-0.389,0.938-0.389c0.734,0,1.098,0.364,1.098,1.098
				c0,0.364-0.102,0.654-0.313,0.862c-1.149,1.309-2.368,2.55-3.645,3.725c-1.283,1.178-2.566,2.225-3.843,3.137
				c-1.283,0.916-2.553,1.637-3.805,2.158c-1.258,0.523-2.464,0.785-3.613,0.785c-1.462,0-2.834-0.456-4.117-1.372
				c-1.283-0.916-2.521-2.394-3.722-4.433c-0.945-1.618-1.794-3.476-2.553-5.57c-0.76-2.091-1.558-4.063-2.394-5.921
				c-0.836-1.854-1.8-3.425-2.898-4.708c-1.098-1.28-2.483-1.921-4.162-1.921c-1.302,0-2.7,0.654-4.194,1.963
				c-1.487,1.305-2.968,2.968-4.43,4.979c-1.468,2.014-2.866,4.235-4.2,6.668c-1.334,2.432-2.47,4.775-3.409,7.022
				c-0.262,0.626-0.511,1.321-0.747,2.078c-0.236,0.76-0.472,1.452-0.702,2.078c-0.236,0.629-0.485,1.165-0.747,1.609
				c-0.262,0.444-0.575,0.667-0.945,0.667c-0.313,0-0.587-0.093-0.823-0.274c-0.236-0.185-0.351-0.46-0.351-0.823
				c0.16-2.77,0.313-4.982,0.472-6.629c0.153-1.647,0.275-2.952,0.351-3.923c0.077-0.967,0.172-1.905,0.274-2.821
				c0.102-0.916,0.236-2.288,0.389-4.121c0-0.469-0.051-0.705-0.153-0.705c-0.16,0-0.434,0.211-0.823,0.629
				c-0.396,0.418-0.849,0.929-1.372,1.529c-0.523,0.603-1.072,1.245-1.647,1.921C252.47,105.814,251.947,106.418,251.475,106.941z"
				/>
			<path style="fill:#FFFFFF;" d="M256.728,120.853c-0.423,0-0.803-0.127-1.129-0.379c-0.25-0.196-0.546-0.565-0.546-1.219
				c0.172-2.987,0.322-5.1,0.475-6.678c0.153-1.642,0.274-2.945,0.352-3.914c0.076-0.973,0.173-1.917,0.275-2.838
				c0.098-0.878,0.226-2.178,0.371-3.902c-0.03,0.031-0.063,0.065-0.096,0.102c-0.395,0.417-0.843,0.922-1.361,1.517
				c-0.521,0.601-1.069,1.241-1.643,1.917c-0.578,0.684-1.105,1.291-1.58,1.817l-0.02,0.021c-0.522,0.519-1.022,0.771-1.526,0.771
				c-1.016,0-1.598-0.583-1.598-1.598c0-0.381,0.143-0.75,0.423-1.099c2.167-2.377,3.854-4.208,5.08-5.518
				c1.334-1.413,2.554-2.157,3.73-2.275l0.058-0.006l0.059,0.008c1.275,0.17,1.642,0.857,1.724,1.404
				c0.082,0.591,0.096,1.429,0.043,2.568c-0.335,3.596-0.516,5.648-0.587,6.679c-0.02,0.253-0.04,0.506-0.062,0.761
				c1.107-2.192,2.195-4.212,3.247-6.028c1.475-2.557,2.955-4.755,4.397-6.534c1.462-1.809,2.978-3.242,4.503-4.26
				c1.561-1.042,3.192-1.597,4.851-1.651c0.001,0,0.002,0,0.002,0c1.554,0,2.936,0.308,4.123,0.916
				c1.188,0.607,2.287,1.566,3.267,2.849c0.958,1.247,1.889,2.877,2.766,4.846c0.872,1.957,1.84,4.34,2.877,7.084
				c0.662,1.945,1.344,3.481,2.031,4.581c0.682,1.082,1.324,1.889,1.908,2.396c0.569,0.499,1.108,0.82,1.603,0.955
				c0.535,0.145,1.019,0.219,1.439,0.219c0.706,0,1.561-0.223,2.541-0.662c1.01-0.456,2.088-1.099,3.204-1.911
				c1.149-0.836,2.322-1.801,3.486-2.866c1.188-1.083,2.312-2.23,3.337-3.413c0.386-0.382,0.819-0.562,1.316-0.562
				c1.016,0,1.598,0.583,1.598,1.598c0,0.506-0.155,0.916-0.462,1.217c-1.115,1.273-2.354,2.539-3.657,3.737
				c-1.294,1.187-2.603,2.255-3.891,3.176c-1.314,0.938-2.628,1.683-3.904,2.213c-3.003,1.251-5.794,1.083-8.212-0.643
				c-1.333-0.952-2.632-2.495-3.861-4.586c-0.949-1.624-1.821-3.525-2.593-5.653c-0.751-2.064-1.552-4.045-2.38-5.886
				c-0.816-1.81-1.767-3.354-2.822-4.588c-1.008-1.175-2.245-1.747-3.782-1.747c-1.171,0-2.472,0.619-3.865,1.839
				c-1.457,1.279-2.922,2.927-4.354,4.897c-1.444,1.982-2.846,4.208-4.166,6.614c-1.316,2.4-2.456,4.747-3.387,6.974
				c-0.25,0.599-0.496,1.284-0.73,2.034c-0.238,0.768-0.478,1.469-0.711,2.102c-0.244,0.654-0.508,1.222-0.784,1.69
				C257.659,120.694,257.11,120.853,256.728,120.853z M256.888,100.556c0.653,0,0.653,0.814,0.653,1.206
				c-0.155,1.88-0.291,3.256-0.393,4.175c-0.103,0.911-0.197,1.844-0.273,2.806c-0.077,0.973-0.198,2.28-0.352,3.93
				c-0.151,1.566-0.301,3.667-0.472,6.612c0.001,0.241,0.086,0.342,0.161,0.401c0.146,0.112,0.315,0.168,0.515,0.168
				c0.065,0,0.266,0,0.515-0.421c0.247-0.418,0.485-0.933,0.708-1.53c0.228-0.616,0.461-1.3,0.693-2.05
				c0.244-0.781,0.501-1.495,0.764-2.123c0.943-2.26,2.098-4.638,3.432-7.069c1.341-2.444,2.766-4.706,4.234-6.722
				c1.476-2.029,2.991-3.732,4.504-5.061c1.582-1.385,3.104-2.087,4.524-2.087c1.821,0,3.349,0.705,4.542,2.096
				c1.117,1.307,2.118,2.931,2.975,4.828c0.839,1.864,1.648,3.867,2.407,5.955c0.752,2.071,1.598,3.917,2.516,5.488
				c1.158,1.969,2.362,3.409,3.58,4.279c2.14,1.528,4.57,1.647,7.247,0.533c1.207-0.501,2.454-1.209,3.707-2.103
				c1.255-0.897,2.531-1.939,3.795-3.099c1.276-1.174,2.49-2.415,3.607-3.687c0.135-0.134,0.188-0.3,0.188-0.531
				c0-0.458-0.14-0.598-0.598-0.598c-0.231,0-0.418,0.078-0.587,0.245c-1.025,1.184-2.176,2.36-3.392,3.467
				c-1.19,1.089-2.394,2.078-3.573,2.936c-1.171,0.853-2.31,1.53-3.382,2.014c-1.126,0.505-2.091,0.75-2.951,0.75
				c-0.509,0-1.081-0.085-1.701-0.254c-0.644-0.175-1.315-0.567-1.999-1.166c-0.665-0.579-1.352-1.436-2.097-2.618
				c-0.729-1.167-1.444-2.773-2.126-4.775c-1.024-2.71-1.984-5.076-2.85-7.015c-0.845-1.896-1.734-3.459-2.646-4.645
				c-0.889-1.164-1.874-2.027-2.928-2.566c-1.047-0.536-2.275-0.807-3.653-0.807c-1.453,0.048-2.909,0.547-4.313,1.483
				c-1.441,0.961-2.882,2.326-4.28,4.057c-1.41,1.739-2.86,3.894-4.31,6.405c-1.43,2.471-2.93,5.324-4.457,8.48l-1.329,2.747
				l0.383-3.028c0.148-1.169,0.268-2.349,0.354-3.505c0.072-1.036,0.254-3.096,0.588-6.676c0.048-1.039,0.036-1.839-0.035-2.355
				c-0.02-0.127-0.065-0.434-0.809-0.548c-0.9,0.113-1.924,0.771-3.044,1.958c-1.223,1.306-2.907,3.133-5.05,5.483
				c-0.115,0.146-0.182,0.299-0.182,0.448c0,0.458,0.14,0.598,0.598,0.598c0.219,0,0.5-0.163,0.813-0.471
				c0.466-0.518,0.982-1.113,1.55-1.784c0.576-0.679,1.126-1.322,1.65-1.926c0.529-0.607,0.987-1.123,1.387-1.545
				C256.226,100.777,256.56,100.556,256.888,100.556z"/>
		</g>
		<g>
			<path style="fill:#FFFFFF;" d="M314.62,71.328c0.102-0.364,0.287-0.6,0.549-0.705c0.262-0.105,0.536-0.131,0.823-0.08
				c0.287,0.054,0.523,0.198,0.702,0.431c0.185,0.236,0.249,0.511,0.198,0.823c-0.523,1.988-1.085,4.133-1.685,6.435
				c-0.6,2.301-1.194,4.705-1.768,7.217c-0.262,1.305-0.523,2.614-0.785,3.919l3.217-1.254c3.505-1.36,7.06-2.716,10.667-4.079
				c0.734-0.102,1.194,0.131,1.379,0.709c0.179,0.575-0.019,1.072-0.594,1.487c-3.556,1.363-7.111,2.723-10.667,4.079
				c-1.519,0.578-3.032,1.178-4.551,1.807c0,0.262-0.026,0.549-0.077,0.862c-0.415,2.509-0.677,4.97-0.785,7.373
				c-0.102,1.676-0.102,3.268,0,4.784c0.109,1.519,0.338,2.956,0.709,4.315c0.575,2.196,1.449,3.792,2.63,4.784
				c1.175,0.996,2.47,1.516,3.881,1.57c1.2,0.051,2.458-0.185,3.766-0.709c1.302-0.52,2.611-1.2,3.919-2.04
				c1.57-1.044,3.045-2.221,4.43-3.527c1.385-1.309,2.553-2.512,3.492-3.61c0.523-0.575,1.072-0.68,1.647-0.313
				c0.575,0.367,0.651,0.916,0.236,1.647c-1.098,1.36-2.343,2.694-3.728,3.999c-1.385,1.309-2.86,2.486-4.43,3.53
				c-1.462,0.996-3.032,1.832-4.705,2.512c-2.196,0.833-4.29,1.098-6.275,0.782c-1.57-0.262-2.93-0.926-4.079-1.998
				c-1.155-1.072-2.017-2.474-2.592-4.197c-0.989-3.243-1.411-6.929-1.251-11.059c0.051-2.512,0.287-5.072,0.702-7.689v-0.077
				l-3.607,1.331c-0.421,0.105-0.76,0.08-1.021-0.077c-0.262-0.156-0.428-0.367-0.511-0.629c-0.077-0.262-0.064-0.536,0.045-0.823
				c0.102-0.287,0.338-0.511,0.702-0.667c1.621-0.575,3.217-1.175,4.788-1.803c0.364-1.727,0.728-3.425,1.098-5.097
				c0.574-2.563,1.175-5.033,1.8-7.414C313.522,75.499,314.096,73.316,314.62,71.328z"/>
			<path style="fill:#FFFFFF;" d="M318.454,118.705c-0.582,0-1.155-0.044-1.717-0.134c-1.668-0.278-3.127-0.993-4.342-2.126
				c-1.208-1.121-2.125-2.604-2.726-4.405c-1.008-3.305-1.437-7.081-1.276-11.236c0.046-2.255,0.245-4.604,0.593-6.989l-2.824,1.042
				c-0.602,0.153-1.073,0.108-1.45-0.117c-0.363-0.216-0.609-0.522-0.731-0.907c-0.111-0.382-0.092-0.765,0.054-1.151
				c0.146-0.413,0.475-0.736,0.973-0.95c1.572-0.559,3.094-1.13,4.551-1.709c0.346-1.638,0.691-3.251,1.044-4.84
				c0.573-2.559,1.181-5.059,1.805-7.433c0.598-2.25,1.144-4.323,1.644-6.223l0.088-0.335c0.183-0.647,0.56-0.919,0.844-1.033
				c0.346-0.139,0.716-0.176,1.098-0.108c0.413,0.078,0.761,0.292,1.012,0.619c0.266,0.339,0.368,0.759,0.294,1.209
				c-0.533,2.034-1.095,4.178-1.694,6.479c-0.644,2.466-1.221,4.822-1.765,7.202l-0.603,3.01l2.366-0.922
				c3.506-1.361,7.063-2.718,10.671-4.081l0.108-0.027c1.327-0.181,1.772,0.58,1.924,1.051c0.243,0.783-0.033,1.508-0.777,2.045
				l-0.114,0.062c-3.556,1.363-7.111,2.723-10.666,4.08c-1.416,0.538-2.841,1.102-4.242,1.679c-0.014,0.193-0.037,0.395-0.072,0.604
				c-0.408,2.476-0.671,4.937-0.779,7.314c-0.1,1.653-0.1,3.241,0,4.729c0.11,1.53,0.337,2.91,0.692,4.217
				c0.547,2.092,1.377,3.615,2.469,4.533c1.08,0.915,2.283,1.404,3.579,1.454c1.131,0.05,2.327-0.179,3.562-0.673
				c1.273-0.509,2.563-1.18,3.836-1.996c1.519-1.01,2.986-2.179,4.356-3.47c1.389-1.313,2.552-2.514,3.455-3.571
				c0.941-1.033,1.842-0.699,2.296-0.41c0.378,0.242,1.176,0.953,0.401,2.315c-1.147,1.433-2.418,2.795-3.82,4.116
				c-1.407,1.33-2.92,2.535-4.496,3.583c-1.472,1.003-3.086,1.865-4.793,2.559C321.617,118.389,320.002,118.705,318.454,118.705z
				 M310.096,92.34l-0.006,0.872c-0.412,2.6-0.646,5.164-0.696,7.621c-0.156,4.052,0.258,7.718,1.229,10.903
				c0.542,1.628,1.369,2.971,2.453,3.977c1.069,0.998,2.355,1.627,3.821,1.872c1.882,0.3,3.905,0.044,6.015-0.756
				c1.632-0.663,3.183-1.491,4.602-2.458c1.533-1.019,3.001-2.189,4.367-3.48c1.37-1.291,2.609-2.62,3.684-3.95
				c0.343-0.618,0.066-0.795-0.117-0.912c-0.304-0.195-0.592-0.228-1.007,0.229c-0.917,1.072-2.104,2.299-3.519,3.636
				c-1.412,1.331-2.925,2.535-4.497,3.58c-1.332,0.854-2.679,1.555-4.011,2.087c-1.368,0.547-2.707,0.795-3.974,0.744
				c-1.521-0.059-2.93-0.626-4.183-1.688c-1.252-1.053-2.191-2.749-2.79-5.04c-0.372-1.365-0.609-2.808-0.725-4.405
				c-0.103-1.532-0.103-3.163,0-4.851c0.109-2.409,0.376-4.909,0.791-7.424c0.047-0.283,0.07-0.545,0.07-0.78v-0.334l0.309-0.128
				c1.506-0.623,3.042-1.233,4.565-1.812c3.532-1.348,7.066-2.7,10.601-4.054c0.453-0.347,0.437-0.647,0.359-0.896
				c-0.053-0.165-0.146-0.443-0.779-0.369c-3.587,1.355-7.122,2.705-10.607,4.057l-4.068,1.586l0.965-4.815
				c0.549-2.404,1.129-4.769,1.775-7.245c0.6-2.301,1.161-4.446,1.685-6.436c0.02-0.13-0.011-0.264-0.107-0.388
				c-0.106-0.139-0.233-0.216-0.401-0.248c-0.191-0.034-0.371-0.017-0.545,0.053c-0.11,0.044-0.195,0.169-0.253,0.373l-0.085,0.322
				c-0.5,1.901-1.046,3.975-1.644,6.224c-0.621,2.361-1.225,4.849-1.795,7.395c-0.371,1.669-0.733,3.366-1.098,5.091l-0.056,0.262
				l-0.248,0.1c-1.544,0.618-3.161,1.228-4.806,1.811c-0.201,0.087-0.345,0.213-0.397,0.362c-0.072,0.191-0.083,0.357-0.036,0.517
				c0.044,0.138,0.136,0.249,0.286,0.339c0.144,0.085,0.361,0.092,0.645,0.021L310.096,92.34z"/>
		</g>
	</g>
	<g>
		<polygon style="fill:#D7D8D7;" points="73.744,145.82 92.219,145.82 82.982,161.82 73.744,177.82 64.506,161.82 55.269,145.82 		
			"/>
	</g>
	<g>
		<g>
			<polygon style="fill:#C8C7C7;" points="261.574,259.806 280.05,259.806 270.812,275.806 261.574,291.806 252.337,275.806 
				243.099,259.806 			"/>
		</g>
	</g>
</g>
</svg>
