<?xml version="1.0" encoding="utf-8"?>
<!-- Generator: Adobe Illustrator 21.1.0, SVG Export Plug-In . SVG Version: 6.00 Build 0)  -->
<svg version="1.1" id="Layer_1" xmlns="http://www.w3.org/2000/svg" xmlns:xlink="http://www.w3.org/1999/xlink" x="0px" y="0px"
	 viewBox="0 0 148 182" style="enable-background:new 0 0 148 182;" xml:space="preserve">
<style type="text/css">
	.st0{fill:#C7C7C7;}
</style>
<g>
	<g>
		<g>
			<path class="st0" d="M136.2,52.5c-0.6-0.2-1.3-0.4-1.8-0.4l-68.4-0.2l-45.7-42c-1-0.7-2.3-1.1-3.6-1.1c-3.7,0-6.7,3-6.7,6.7
				c0,0.6,0.1,1.2,0.3,1.8l22.9,56.2l-17.2,94.4l-0.2,1c0,1.2,0.3,2.5,1.1,3.6c2,3.1,6.1,4,9.3,2c0.5-0.3,1-0.7,1.3-1.2l1.4-1.5
				c9-11.1,46.6-81.6,46.6-81.6l60.2-25l1.9-1c1-0.7,1.9-1.7,2.4-2.9C141.2,57.8,139.6,53.9,136.2,52.5z M66.6,79.9l-30.7,52
				l10.9-59.6L34.2,40.7l27.2,24.4h39.4L66.6,79.9z"/>
		</g>
	</g>
	<path class="st0" d="M58.7,33.1C58.7,25.3,65.6,19,74,19s15.2,6.3,15.2,14.1c0,7.8-6.8,14.1-15.2,14.1
		C65.6,47.3,58.7,40.9,58.7,33.1"/>
</g>
</svg>
