<?xml version="1.0" encoding="iso-8859-1"?>
<!-- Generator: Adobe Illustrator 21.0.2, SVG Export Plug-In . SVG Version: 6.00 Build 0)  -->
<svg version="1.1" id="Layer_1" xmlns="http://www.w3.org/2000/svg" xmlns:xlink="http://www.w3.org/1999/xlink" x="0px" y="0px"
	 viewBox="0 0 488.667 182" style="enable-background:new 0 0 488.667 182;" xml:space="preserve">
<g>
	<g>
		<g>
			<path style="fill:#FFFFFF;" d="M136.226,52.451c-0.555-0.233-1.269-0.367-1.838-0.443L65.945,51.79L20.266,9.796
				c-1.048-0.681-2.282-1.074-3.624-1.074c-3.696,0-6.693,2.997-6.693,6.692c0,0.603,0.111,1.205,0.26,1.76l22.879,56.159
				l-17.19,94.437l-0.223,0.975c-0.002,1.249,0.337,2.5,1.066,3.627c2.007,3.104,6.15,3.992,9.254,1.985
				c0.506-0.328,0.952-0.748,1.336-1.173l1.361-1.516c8.98-11.088,46.611-81.582,46.611-81.582l60.179-24.964l1.919-0.983
				c1.034-0.702,1.875-1.686,2.396-2.924C141.231,57.81,139.632,53.886,136.226,52.451z M66.599,79.86l-30.681,52.006l10.879-59.623
				L34.176,40.692l27.2,24.371h39.385L66.599,79.86z"/>
		</g>
	</g>
	<path style="fill:#FFFFFF;" d="M214.347,128.801l17.76-47.845h-18.441l-7.133,19.22c-3.304,8.9-4.867,11.43-8.299,13.655
		c-3.005,1.921-6.602,2.63-13.166,2.63c-6.979,0-9.567-0.606-11.004-2.63c-1.303-1.821-1-4.047,1.592-11.026l8.11-21.849h-18.442
		l-8.108,21.849c-4.844,13.05-5.258,16.69-2.43,21.142c2.866,4.35,8.27,6.069,19.729,6.069c12.399,0,19.096-2.327,24.162-8.396
		h0.938l-2.666,7.182H214.347"/>
	<path style="fill:#FFFFFF;" d="M240.323,80.956l-17.759,47.845h18.44l7.097-19.118c3.266-8.801,4.509-11.024,7.665-13.351
		c3.013-2.226,6.998-3.136,13.771-3.136c6.874,0,10.153,0.709,11.421,2.629c1.304,1.821,0.977,3.54-1.876,11.228l-8.072,21.747
		h18.44l8.072-21.747c4.882-13.148,5.296-16.791,2.505-21.343c-2.762-4.35-8.203-5.968-20.081-5.968
		c-11.876,0-18.366,2.326-23.989,8.497h-0.939l2.703-7.284H240.323"/>
	<g>
		<path style="fill:#FFFFFF;" d="M376.409,79.743c-17.295,0-24.793,1.112-30.577,4.35c-6.213,3.54-9.323,7.99-13.717,19.825
			c-4.881,13.15-5.357,17.803-2.191,21.343c3.299,3.742,9.07,4.755,27.406,4.755c18.338,0,24.859-1.013,30.938-4.755
			c5.831-3.642,8.733-8.092,13.652-21.343c4.43-11.936,4.586-16.285,1.003-19.825C399.541,80.855,392.764,79.743,376.409,79.743
			L376.409,79.743z M370.998,93.196c5.417,0,9.5,0.506,11.454,1.416c2.951,1.315,3.129,3.641,0.727,10.115
			c-3.755,10.114-6.789,11.835-20.645,11.835c-6.044,0-9.918-0.507-11.939-1.518c-2.742-1.315-2.891-3.439-0.563-9.711
			C353.86,95.017,357.037,93.196,370.998,93.196"/>
		<path style="fill:#FFFFFF;" d="M417.29,80.956l-17.76,47.845h18.44l7.095-19.118c3.269-8.801,4.51-11.024,7.667-13.351
			c3.014-2.226,6.997-3.136,13.77-3.136c6.876,0,10.156,0.709,11.423,2.629c1.303,1.821,0.977,3.54-1.875,11.228l-8.073,21.747
			h18.44l8.072-21.747c4.88-13.148,5.296-16.791,2.505-21.343c-2.761-4.35-8.203-5.968-20.081-5.968
			c-11.876,0-18.365,2.326-23.989,8.497h-0.939l2.704-7.284H417.29"/>
	</g>
	<polyline style="fill:#FFFFFF;" points="315.294,81.535 297.425,129.819 315.929,129.819 333.363,81.535 315.294,81.535 	"/>
	<path style="fill:#FFFFFF;" d="M58.724,33.133c0-7.811,6.828-14.143,15.25-14.143c8.422,0,15.249,6.332,15.249,14.143
		c0,7.812-6.828,14.144-15.249,14.144C65.552,47.277,58.724,40.945,58.724,33.133"/>
	<g>
		<path style="fill:#FFFFFF;" d="M152.895,52.591h14.025v1.446h-6.176v10.886h-1.652V54.038h-6.197V52.591z"/>
		<path style="fill:#FFFFFF;" d="M167.841,52.591h1.652v5.206h11.34v-5.206h1.652v12.332h-1.652v-5.68h-11.34v5.68h-1.652V52.591z"
			/>
		<path style="fill:#FFFFFF;" d="M184.342,64.923V52.591h12.084v1.446h-10.431v3.759h9.998v1.446h-9.998v4.234h10.431v1.446H184.342
			z"/>
		<path style="fill:#FFFFFF;" d="M206.521,61.061h1.6c0,0.14,0.002,0.23,0.008,0.273c0.013,0.698,0.063,1.165,0.149,1.402
			c0.087,0.236,0.28,0.418,0.576,0.545c0.458,0.201,1.957,0.3,4.497,0.3c1.841,0,3.162-0.09,3.965-0.271
			c0.79-0.175,1.186-0.788,1.186-1.837c0-0.53-0.064-0.931-0.191-1.199c-0.127-0.269-0.344-0.457-0.651-0.565
			c-0.308-0.108-0.739-0.172-1.293-0.19c-0.555-0.018-2.355-0.027-5.398-0.027c-1.026,0-1.846-0.095-2.461-0.285
			c-0.615-0.19-1.089-0.493-1.42-0.909c-0.392-0.495-0.587-1.246-0.587-2.253c0-1.117,0.309-1.924,0.931-2.426
			c0.301-0.247,0.635-0.434,1.001-0.561c0.368-0.126,0.883-0.229,1.546-0.308c1.089-0.132,2.384-0.198,3.883-0.198
			c1.393,0,2.466,0.07,3.226,0.212c0.759,0.142,1.349,0.386,1.77,0.729c0.351,0.284,0.589,0.617,0.719,0.997
			c0.13,0.381,0.2,0.967,0.213,1.759h-1.646c0-0.097,0-0.162,0-0.191c0-0.607-0.066-1.014-0.199-1.221
			c-0.192-0.322-0.612-0.552-1.261-0.692c-0.647-0.14-1.613-0.209-2.896-0.209c-1.597,0-2.794,0.06-3.593,0.18
			c-0.798,0.121-1.339,0.32-1.622,0.597c-0.266,0.266-0.398,0.706-0.398,1.321c0,0.554,0.066,0.949,0.199,1.183
			c0.134,0.235,0.393,0.413,0.777,0.534c0.561,0.18,1.641,0.277,3.238,0.289c0.543,0.006,1.884,0.012,4.024,0.019
			c0.886,0.005,1.566,0.091,2.04,0.253c0.474,0.163,0.859,0.443,1.162,0.841c0.373,0.506,0.559,1.229,0.559,2.17
			c0,0.898-0.153,1.606-0.46,2.124c-0.368,0.603-1.049,1.007-2.048,1.212c-0.997,0.205-2.787,0.307-5.371,0.307
			c-1.367,0-2.375-0.04-3.022-0.122c-0.647-0.082-1.161-0.231-1.54-0.448c-0.458-0.259-0.775-0.588-0.949-0.989
			c-0.175-0.401-0.262-0.999-0.262-1.794C206.521,61.575,206.521,61.392,206.521,61.061z"/>
		<path style="fill:#FFFFFF;" d="M220.673,52.591h14.025v1.446h-6.176v10.886h-1.652V54.038h-6.197V52.591z"/>
		<path style="fill:#FFFFFF;" d="M235.495,52.591h1.651v6.06c0,1.79,0.019,2.868,0.055,3.235c0.048,0.47,0.184,0.811,0.406,1.022
			c0.223,0.211,0.592,0.35,1.109,0.416c0.854,0.103,2.084,0.153,3.689,0.153c2.2,0,3.717-0.066,4.546-0.199
			c0.494-0.078,0.841-0.23,1.042-0.456c0.202-0.226,0.318-0.595,0.348-1.107c0.03-0.463,0.052-1.484,0.063-3.063v-6.06h1.653v6.06
			c-0.012,1.645-0.042,2.781-0.091,3.407c-0.108,1.074-0.504,1.823-1.184,2.245c-0.421,0.254-0.933,0.413-1.536,0.48
			c-0.602,0.066-2.087,0.127-4.452,0.181c-2.077-0.03-3.322-0.055-3.731-0.077c-0.409-0.021-0.859-0.083-1.347-0.185
			c-0.814-0.175-1.408-0.633-1.788-1.375c-0.181-0.361-0.293-0.794-0.34-1.297c-0.044-0.503-0.076-1.629-0.094-3.378V52.591z"/>
		<path style="fill:#FFFFFF;" d="M251.795,64.923V52.591h8.521c1.888,0,3.214,0.079,3.979,0.235
			c0.924,0.186,1.626,0.678,2.109,1.472c0.246,0.404,0.42,0.945,0.523,1.622c0.103,0.678,0.153,1.622,0.153,2.832
			c0,1.512-0.135,2.71-0.406,3.596c-0.422,1.361-1.321,2.159-2.696,2.393c-0.71,0.121-1.89,0.181-3.535,0.181H251.795z
			 M253.447,63.477h6.923c1.19,0,1.928-0.007,2.215-0.022c0.286-0.015,0.604-0.064,0.946-0.149c0.672-0.156,1.151-0.592,1.44-1.31
			c0.29-0.716,0.436-1.821,0.436-3.315c0-1.939-0.251-3.215-0.753-3.83c-0.187-0.234-0.435-0.411-0.743-0.529
			c-0.309-0.117-0.728-0.2-1.259-0.249c-0.314-0.023-1.103-0.036-2.364-0.036h-6.842V63.477z"/>
		<path style="fill:#FFFFFF;" d="M268.667,64.923V52.591h12.084v1.446h-10.432v3.759h9.997v1.446h-9.997v4.234h10.432v1.446H268.667
			z"/>
		<path style="fill:#FFFFFF;" d="M281.942,52.591h2.743l10.78,10.804h0.378V52.591h1.652v12.332h-2.788l-10.754-10.782h-0.359
			v10.782h-1.652V52.591z"/>
		<path style="fill:#FFFFFF;" d="M298.435,52.591h14.026v1.446h-6.177v10.886h-1.652V54.038h-6.197V52.591z"/>
		<path style="fill:#FFFFFF;" d="M313.112,61.061h1.6c0,0.14,0.002,0.23,0.01,0.273c0.011,0.698,0.061,1.165,0.147,1.402
			c0.088,0.236,0.28,0.418,0.576,0.545c0.458,0.201,1.957,0.3,4.497,0.3c1.841,0,3.162-0.09,3.965-0.271
			c0.79-0.175,1.186-0.788,1.186-1.837c0-0.53-0.064-0.931-0.19-1.199c-0.127-0.269-0.344-0.457-0.651-0.565
			c-0.309-0.108-0.739-0.172-1.293-0.19c-0.556-0.018-2.355-0.027-5.399-0.027c-1.025,0-1.847-0.095-2.461-0.285
			c-0.613-0.19-1.088-0.493-1.42-0.909c-0.392-0.495-0.587-1.246-0.587-2.253c0-1.117,0.311-1.924,0.931-2.426
			c0.301-0.247,0.636-0.434,1.002-0.561c0.368-0.126,0.883-0.229,1.545-0.308c1.09-0.132,2.385-0.198,3.884-0.198
			c1.392,0,2.466,0.07,3.225,0.212c0.758,0.142,1.349,0.386,1.771,0.729c0.35,0.284,0.588,0.617,0.718,0.997
			c0.13,0.381,0.201,0.967,0.213,1.759h-1.645c0-0.097,0-0.162,0-0.191c0-0.607-0.066-1.014-0.2-1.221
			c-0.191-0.322-0.612-0.552-1.261-0.692c-0.648-0.14-1.614-0.209-2.896-0.209c-1.597,0-2.794,0.06-3.592,0.18
			c-0.799,0.121-1.34,0.32-1.623,0.597c-0.264,0.266-0.396,0.706-0.396,1.321c0,0.554,0.065,0.949,0.198,1.183
			c0.133,0.235,0.391,0.413,0.778,0.534c0.561,0.18,1.64,0.277,3.238,0.289c0.542,0.006,1.883,0.012,4.023,0.019
			c0.886,0.005,1.565,0.091,2.038,0.253c0.475,0.163,0.861,0.443,1.164,0.841c0.373,0.506,0.561,1.229,0.561,2.17
			c0,0.898-0.154,1.606-0.462,2.124c-0.368,0.603-1.049,1.007-2.047,1.212c-0.996,0.205-2.787,0.307-5.371,0.307
			c-1.368,0-2.376-0.04-3.023-0.122c-0.648-0.082-1.16-0.231-1.54-0.448c-0.458-0.259-0.775-0.588-0.949-0.989
			c-0.176-0.401-0.262-0.999-0.262-1.794C313.112,61.575,313.112,61.392,313.112,61.061z"/>
		<path style="fill:#FFFFFF;" d="M328.702,52.591h2.004v2.086c0,0.485-0.025,0.855-0.072,1.107c-0.048,0.252-0.137,0.456-0.269,0.61
			c-0.283,0.364-0.805,0.549-1.563,0.555h-0.306v-1.074h0.37c0.412-0.019,0.612-0.349,0.601-0.991v-0.208h-0.765V52.591z"/>
	</g>
</g>
</svg>
