<?xml version="1.0" encoding="utf-8"?>
<!-- Generator: Adobe Illustrator 21.1.0, SVG Export Plug-In . SVG Version: 6.00 Build 0)  -->
<svg version="1.1" id="Layer_1" xmlns="http://www.w3.org/2000/svg" xmlns:xlink="http://www.w3.org/1999/xlink" x="0px" y="0px"
	 viewBox="0 0 434.7 196.7" style="enable-background:new 0 0 434.7 196.7;" xml:space="preserve">
<style type="text/css">
	.st0{fill:#424143;}
	.st1{fill:#9E0B0F;}
</style>
<g>
	<polygon class="st0" points="138.8,137.7 138.8,67.2 190.7,67.1 190.7,80.3 152.9,80.3 152.9,95.3 181.2,95.3 181.2,108.4 
		152.9,108.4 152.9,124.5 190.6,124.5 190.6,137.7 	"/>
	<polygon class="st0" points="355.8,137.7 355.8,67.2 407.6,67.1 407.6,80.3 369.9,80.3 369.9,95.3 398.2,95.3 398.2,108.4 
		369.9,108.4 369.9,124.5 407.5,124.5 407.5,137.7 	"/>
	<polygon class="st0" points="253,41.5 259.7,58.3 134.5,58.3 93.5,160.9 71.7,160.9 23.8,41.5 45.7,41.5 82.2,135.6 119.3,41.5 	
		"/>
	<polygon class="st0" points="407.6,41.5 407.6,58.3 289.4,58.3 282.9,41.5 	"/>
	<polygon class="st0" points="407.6,144.1 277.7,144.1 286.9,160.9 407.6,160.9 	"/>
	<polygon class="st0" points="108.3,144.1 102.2,160.9 255.8,160.9 246.3,144.1 	"/>
	<path class="st1" d="M282.4,165.9l-2.8-5l-9.4-16.8l-20.9-37.2c8.7-2.8,13-9.3,13-19.5c0-13.5-8.2-20.3-24.7-20.3h-30.8v70.5h14.1
		v-29.2h12.9l20.1,35.6l9.4,16.8l10.3,18.2h134.1v-13.1H282.4z M240.7,95.3h-19.8v-15h19.9c5.6,0.2,8.5,2.6,8.6,7.2
		C249.2,92.6,246.3,95.2,240.7,95.3"/>
	<polygon class="st0" points="341.3,67.5 313.3,137.7 299.3,137.7 267.3,58.3 260.5,41.5 257.8,34.7 116.4,34.7 89.1,102.9 
		82,120.9 73.7,99.4 47.7,34.7 21.9,34.7 16.3,21.5 57.3,21.5 81.9,84 106.6,21.5 267.4,21.5 275.4,41.5 282,58.3 306.1,118.9 
		326.4,67.5 	"/>
</g>
</svg>
