<?xml version="1.0" encoding="utf-8"?>
<!-- Generator: Adobe Illustrator 21.1.0, SVG Export Plug-In . SVG Version: 6.00 Build 0)  -->
<svg version="1.1" id="Layer_1" xmlns="http://www.w3.org/2000/svg" xmlns:xlink="http://www.w3.org/1999/xlink" x="0px" y="0px"
	 viewBox="0 0 123 24" style="enable-background:new 0 0 123 24;" xml:space="preserve">
<style type="text/css">
	.st0{fill:#160603;}
</style>
<path class="st0" d="M57.3,13.3l2.8-2.8l-7-7c-1.6,1.6-1.6,4.1,0,5.7L57.3,13.3z M64.1,11.5c1.5,0.7,3.7,0.2,5.3-1.4
	c1.9-1.9,2.3-4.7,0.8-6.1c-1.5-1.5-4.2-1.1-6.1,0.8c-1.6,1.6-2.1,3.7-1.4,5.3L53,19.9l1.4,1.4l6.9-6.9l6.9,6.9l1.4-1.4L62.7,13
	C62.7,13,64.1,11.5,64.1,11.5z"/>
<g>
	<path class="st0" d="M7.4,8.1h6.2v2.1H9.8v2h3.5v2H9.8v3.4H7.4V8.1z M9.2,17.3v-3.4h3.5v-1.2H9.2V9.8H13V8.6H8v8.7H9.2z M8.2,8.8
		h4.6v0.1L8.2,8.8L8.2,8.8z M8.6,9.1h4.3v0.1L8.6,9.1L8.6,9.1z M8.9,9.5h4v0.1L8.9,9.5L8.9,9.5z M9.2,12.9h3.4V13L9.2,12.9L9.2,12.9
		z M9.2,13.3h3.4v0.1L9.2,13.3L9.2,13.3z M9.2,13.6h3.4v0.1L9.2,13.6L9.2,13.6z"/>
	<path class="st0" d="M19.8,7.8c3,0,5.2,2.3,5.2,5.1c0,2.9-2.1,5.1-5.2,5.1c-3,0-5.2-2.3-5.2-5.1C14.7,10.1,16.8,7.8,19.8,7.8z
		 M19.8,17.6c2.7,0,4.6-2,4.6-4.6c0-2.6-1.9-4.7-4.6-4.7c-2.7,0-4.6,2.1-4.6,4.7C15.3,15.6,17.2,17.6,19.8,17.6z M15.4,12.6h0.9
		l0,0.1L15.4,12.6L15.4,12.6z M15.4,12.9h0.9V13L15.4,12.9L15.4,12.9z M15.4,13.2h0.9l0,0.1L15.4,13.2L15.4,13.2z M15.5,12.3h0.9
		l0,0.1L15.5,12.3L15.5,12.3z M15.5,13.6h0.9l0,0.1L15.5,13.6L15.5,13.6z M15.5,12h0.9l0,0.1L15.5,12L15.5,12z M15.5,13.9h0.9l0,0.1
		L15.5,13.9L15.5,13.9z M15.6,11.6h0.9l0,0.1L15.6,11.6L15.6,11.6z M15.7,11.3h1l0,0.1L15.7,11.3L15.7,11.3z M15.8,11h1l-0.1,0.1
		L15.8,11L15.8,11z M16,10.7h1.1L17,10.8L16,10.7L16,10.7z M16.2,10.4h1.2l-0.1,0.1L16.2,10.4L16.2,10.4z M16.4,10h1.3l-0.1,0.1
		L16.4,10L16.4,10z M19.8,9.6c2,0,3.4,1.5,3.4,3.3c0,1.9-1.3,3.4-3.4,3.4c-2.1,0-3.4-1.5-3.4-3.4C16.5,11.1,17.8,9.6,19.8,9.6z
		 M16.7,9.7h1.7l-0.2,0.1L16.7,9.7L16.7,9.7z M17.1,9.4h5.5l0.1,0.1h-2.2l-0.6,0l-0.6,0H17L17.1,9.4z M19.8,15.8
		c1.7,0,2.8-1.3,2.8-2.9c0-1.6-1.1-2.9-2.8-2.9c-1.7,0-2.8,1.3-2.8,2.9C17.1,14.6,18.1,15.8,19.8,15.8z M17.6,9.1h4.6l0.1,0.1h-4.8
		L17.6,9.1z M18.2,8.8h3.3l0.2,0.1H18L18.2,8.8z M19.8,8.5l0.8,0.1h-1.6L19.8,8.5z M23,9.7L23,9.7L23,9.7l-1.5,0.1l-0.2-0.1H23z
		 M23.2,10L23.2,10L22,10.1L21.9,10H23.2z M23.5,10.4L23.5,10.4l-1.1,0.1l-0.1-0.1H23.5z M23.7,10.7L23.7,10.7l-1,0.1l-0.1-0.1H23.7
		z M22.8,11h1l0,0.1L22.8,11L22.8,11z M23,11.3H24l0,0.1L23,11.3L23,11.3z M23.2,11.6h0.9l0,0.1L23.2,11.6L23.2,11.6z M23.3,12h0.9
		l0,0.1L23.3,12L23.3,12z M23.3,13.9h0.9l0,0.1L23.3,13.9L23.3,13.9z M23.3,12.3h0.9l0,0.1L23.3,12.3L23.3,12.3z M23.4,13.6h0.9
		l0,0.1L23.4,13.6L23.4,13.6z M23.4,13.2h0.9v0.1L23.4,13.2L23.4,13.2z M23.4,12.6h0.9v0.1L23.4,12.6L23.4,12.6z M23.4,12.9h0.9V13
		L23.4,12.9L23.4,12.9z"/>
	<path class="st0" d="M32.1,7.8c3,0,5.2,2.3,5.2,5.1c0,2.9-2.1,5.1-5.2,5.1c-3,0-5.2-2.3-5.2-5.1C26.9,10.1,29,7.8,32.1,7.8z
		 M32.1,17.6c2.7,0,4.6-2,4.6-4.6c0-2.6-1.9-4.7-4.6-4.7c-2.7,0-4.6,2.1-4.6,4.7C27.5,15.6,29.4,17.6,32.1,17.6z M27.7,12.6h0.9
		l0,0.1L27.7,12.6L27.7,12.6z M27.7,12.9h0.9V13L27.7,12.9L27.7,12.9z M27.7,13.2h0.9l0,0.1L27.7,13.2L27.7,13.2z M27.7,12.3h0.9
		l0,0.1L27.7,12.3L27.7,12.3z M27.7,13.6h0.9l0,0.1L27.7,13.6L27.7,13.6z M27.8,12h0.9l0,0.1L27.8,12L27.8,12z M27.7,13.9h0.9l0,0.1
		L27.7,13.9L27.7,13.9z M27.8,11.6h0.9l0,0.1L27.8,11.6L27.8,11.6z M27.9,11.3h1l0,0.1L27.9,11.3L27.9,11.3z M28.1,11h1L29,11.1
		L28.1,11L28.1,11z M28.2,10.7h1.1l-0.1,0.1L28.2,10.7L28.2,10.7z M28.4,10.4h1.2l-0.1,0.1L28.4,10.4L28.4,10.4z M28.6,10H30
		l-0.1,0.1L28.6,10L28.6,10z M32.1,9.6c2,0,3.4,1.5,3.4,3.3c0,1.9-1.3,3.4-3.4,3.4c-2.1,0-3.4-1.5-3.4-3.4
		C28.7,11.1,30,9.6,32.1,9.6z M29,9.7h1.7l-0.2,0.1L29,9.7L29,9.7z M29.3,9.4h5.5l0.1,0.1h-2.2l-0.6,0l-0.6,0h-2.3L29.3,9.4z
		 M32.1,15.8c1.7,0,2.8-1.3,2.8-2.9c0-1.6-1.1-2.9-2.8-2.9c-1.7,0-2.8,1.3-2.8,2.9C29.3,14.6,30.4,15.8,32.1,15.8z M29.8,9.1h4.6
		l0.1,0.1h-4.8L29.8,9.1z M30.4,8.8h3.3l0.2,0.1h-3.7L30.4,8.8z M32.1,8.5l0.8,0.1h-1.6L32.1,8.5z M35.2,9.7L35.2,9.7L35.2,9.7
		l-1.5,0.1l-0.2-0.1H35.2z M35.5,10L35.5,10l-1.2,0.1L34.2,10H35.5z M35.7,10.4L35.7,10.4l-1.1,0.1l-0.1-0.1H35.7z M35.9,10.7
		L35.9,10.7l-1,0.1l-0.1-0.1H35.9z M35.1,11h1l0,0.1L35.1,11L35.1,11z M35.2,11.3h0.9l0,0.1L35.2,11.3L35.2,11.3z M35.4,11.6h0.9
		l0,0.1L35.4,11.6L35.4,11.6z M35.5,12h0.9l0,0.1L35.5,12L35.5,12z M35.5,13.9h0.9l0,0.1L35.5,13.9L35.5,13.9z M35.6,12.3h0.9l0,0.1
		L35.6,12.3L35.6,12.3z M35.6,13.6h0.9l0,0.1L35.6,13.6L35.6,13.6z M35.6,13.2h0.9v0.1L35.6,13.2L35.6,13.2z M35.6,12.6h0.9v0.1
		L35.6,12.6L35.6,12.6z M35.6,12.9h0.9V13L35.6,12.9L35.6,12.9z"/>
	<path class="st0" d="M38.9,8.1h3.3c2.8,0,5,2.1,5,4.8c0,2.6-2,4.8-5,4.8h-3.3V8.1z M42.2,17.3c2.7,0,4.4-2,4.4-4.4
		c0-2.4-1.9-4.3-4.4-4.3h-2.8v8.7H42.2z M40.6,8.8h2.2l0.4,0.1L40.6,8.8L40.6,8.8z M40.6,9.1H44l0.2,0.1L40.6,9.1L40.6,9.1z
		 M40.6,9.5h4l0.1,0.1L40.6,9.5L40.6,9.5z M40.6,9.8h1.5c2,0,3.3,1.4,3.3,3.1c0,1.9-1.4,3.1-3.3,3.1h-1.5V9.8z M40.6,16.4h4.1
		l-0.1,0.1L40.6,16.4L40.6,16.4z M40.6,16.7h3.6L44,16.8L40.6,16.7L40.6,16.7z M40.6,17h2.7L43,17.1L40.6,17L40.6,17z M42.2,15.6
		c1.5,0,2.7-1.1,2.7-2.7c0-1.5-1-2.7-2.7-2.7h-0.9v5.3H42.2z M43.3,16.1h1.8L45,16.1h-1.9L43.3,16.1z M45,9.8L45,9.8l0.1,0.1h-1.7
		l-0.3-0.1H45z M44.1,15.7h1.4l-0.1,0.1h-1.5L44.1,15.7z M45.4,10.1L45.4,10.1l-1.2,0.1L44,10.1H45.4z M44.5,15.4h1.2l-0.1,0.1h-1.3
		L44.5,15.4z M45.6,10.4L45.6,10.4l-1.1,0.1l-0.1-0.1H45.6z M44.8,15.1h1.1l-0.1,0.1L44.8,15.1L44.8,15.1z M44.8,10.7h1.1l0.1,0.1
		L44.8,10.7L44.8,10.7z M45,14.8h1l0,0.1L45,14.8L45,14.8z M45,11h1l0,0.1L45,11L45,11z M45.2,14.5h1l0,0.1L45.2,14.5L45.2,14.5z
		 M45.2,11.3h1l0,0.1L45.2,11.3L45.2,11.3z M45.3,11.7h0.9l0,0.1L45.3,11.7L45.3,11.7z M45.4,14.2h1l0,0.1L45.4,14.2L45.4,14.2z
		 M45.5,13.8h0.9l0,0.1L45.5,13.8L45.5,13.8z M45.4,12h0.9l0,0.1L45.4,12L45.4,12z M45.5,12.3h0.9l0,0.1L45.5,12.3L45.5,12.3z
		 M45.5,13.5h0.9l0,0.1L45.5,13.5L45.5,13.5z M45.6,13.2h0.9v0.1L45.6,13.2L45.6,13.2z M45.6,12.6h0.9v0.1L45.6,12.6L45.6,12.6z
		 M45.6,12.9h0.9V13L45.6,12.9L45.6,12.9z"/>
</g>
<g>
	<path class="st0" d="M76.3,8.1h3.3c2.8,0,5,2.1,5,4.8c0,2.6-2,4.8-5,4.8h-3.3V8.1z M79.7,17.3c2.7,0,4.4-2,4.4-4.4
		c0-2.4-1.9-4.3-4.4-4.3h-2.8v8.7H79.7z M78.1,8.8h2.2l0.4,0.1L78.1,8.8L78.1,8.8z M78.1,9.1h3.4l0.2,0.1L78.1,9.1L78.1,9.1z
		 M78.1,9.5h4l0.1,0.1L78.1,9.5L78.1,9.5z M78.1,9.8h1.5c2,0,3.3,1.4,3.3,3.1c0,1.9-1.4,3.1-3.3,3.1h-1.5V9.8z M78.1,16.4h4.1
		l-0.1,0.1L78.1,16.4L78.1,16.4z M78.1,16.7h3.6l-0.2,0.1L78.1,16.7L78.1,16.7z M78.1,17h2.7l-0.3,0.1L78.1,17L78.1,17z M79.6,15.6
		c1.5,0,2.7-1.1,2.7-2.7c0-1.5-1-2.7-2.7-2.7h-0.9v5.3H79.6z M80.8,16.1h1.8l-0.1,0.1h-1.9L80.8,16.1z M82.5,9.8L82.5,9.8l0.1,0.1
		h-1.7l-0.3-0.1H82.5z M81.5,15.7h1.4l-0.1,0.1h-1.5L81.5,15.7z M82.8,10.1L82.8,10.1l-1.2,0.1l-0.1-0.1H82.8z M82,15.4h1.2
		l-0.1,0.1h-1.3L82,15.4z M83.1,10.4L83.1,10.4L82,10.5l-0.1-0.1H83.1z M82.3,15.1h1.1l-0.1,0.1L82.3,15.1L82.3,15.1z M82.2,10.7
		h1.1l0.1,0.1L82.2,10.7L82.2,10.7z M82.5,14.8h1l0,0.1L82.5,14.8L82.5,14.8z M82.5,11h1l0,0.1L82.5,11L82.5,11z M82.7,14.5h1l0,0.1
		L82.7,14.5L82.7,14.5z M82.7,11.3h1l0,0.1L82.7,11.3L82.7,11.3z M82.8,11.7h0.9l0,0.1L82.8,11.7L82.8,11.7z M82.8,14.2h1l0,0.1
		L82.8,14.2L82.8,14.2z M82.9,13.8h0.9l0,0.1L82.9,13.8L82.9,13.8z M82.9,12h0.9l0,0.1L82.9,12L82.9,12z M83,12.3h0.9l0,0.1L83,12.3
		L83,12.3z M83,13.5h0.9l0,0.1L83,13.5L83,13.5z M83,13.2h0.9v0.1L83,13.2L83,13.2z M83,12.6h0.9v0.1L83,12.6L83,12.6z M83,12.9H84
		V13L83,12.9L83,12.9z"/>
	<path class="st0" d="M86.3,8.1h4c2.1,0,3.4,1.2,3.4,3.1c0,1.7-0.8,2.6-2.3,3l2.6,3.6h-2.9l-2.4-3.6v3.6h-2.4V8.1z M88.1,17.3v-3.4
		h1.1l2.4,3.4h1.6L90.7,14v-0.1c1.6-0.2,2.5-1,2.5-2.5c0-1.6-1.2-2.7-2.8-2.7h-3.4v8.7H88.1z M88.1,9.7h2.4c1,0,1.5,0.8,1.5,1.5
		c0,0.8-0.6,1.6-1.5,1.6h-2.5V9.7z M88.1,8.8h2.2l0.8,0.1L88.1,8.8L88.1,8.8z M88.1,9.1h3.6l0.1,0.1L88.1,9.1L88.1,9.1z M88.1,9.4
		h4.1l0.1,0.1L88.1,9.4L88.1,9.4z M88.1,12.9h4.3L92.3,13L88.1,12.9L88.1,12.9z M88.1,13.3H92l-0.1,0.1L88.1,13.3L88.1,13.3z
		 M88.1,13.6h3.1l-0.4,0.1L88.1,13.6L88.1,13.6z M90.5,12.3c0.5,0,0.9-0.5,0.9-1.1c0-0.6-0.4-1.1-0.9-1.1h-1.8v2.2H90.5z M89.3,13.9
		h1.1V14L89.3,13.9L89.3,13.9z M89.5,14.2h1.1l0.1,0.1L89.5,14.2L89.5,14.2z M89.8,14.5h1.1l0.1,0.1L89.8,14.5L89.8,14.5z M90,14.9
		h1.1l0.1,0.1L90,14.9L90,14.9z M91.3,15.2L91.3,15.2l-1.1,0.1l0-0.1H91.3z M91.5,15.5L91.5,15.5l-1.1,0.1l0-0.1H91.5z M91.8,15.8
		L91.8,15.8l-1.1,0.1l0-0.1H91.8z M92,16.1L92,16.1l-1.1,0.1l0-0.1H92z M92.2,16.5L92.2,16.5l-1.1,0.1l0-0.1H92.2z M92.5,9.7
		L92.5,9.7l-1.1,0.1l-0.2-0.1H92.5z M92.4,16.8L92.4,16.8l-1.1,0.1l0-0.1H92.4z M91.5,12.6h1.2l-0.1,0.1h-1.2L91.5,12.6z M92.7,17.1
		L92.7,17.1l-1.1,0.1l0-0.1H92.7z M92.7,10.1L92.7,10.1l-0.9,0.1l-0.1-0.1H92.7z M91.8,12.3h1l0,0.1L91.8,12.3L91.8,12.3z
		 M91.9,10.4h0.9l0,0.1L91.9,10.4L91.9,10.4z M92,12h0.9l0,0.1L92,12L92,12z M92.1,10.7h0.8v0.1L92.1,10.7L92.1,10.7z M92.1,11.7
		h0.8v0.1L92.1,11.7L92.1,11.7z M92.2,11H93v0.1L92.2,11L92.2,11z M92.2,11.3H93v0.1L92.2,11.3L92.2,11.3z"/>
	<path class="st0" d="M94.9,8.1h2.4v9.6h-2.4V8.1z M96.6,17.3V8.6h-1.2v8.7H96.6z M95.6,8.7h0.8v0.1L95.6,8.7L95.6,8.7z M95.6,9.1
		h0.8v0.1L95.6,9.1L95.6,9.1z M95.6,9.4h0.8v0.1L95.6,9.4L95.6,9.4z M95.6,9.7h0.8v0.1L95.6,9.7L95.6,9.7z M95.6,10h0.8v0.1L95.6,10
		L95.6,10z M95.6,10.3h0.8v0.1L95.6,10.3L95.6,10.3z M95.6,10.7h0.8v0.1L95.6,10.7L95.6,10.7z M95.6,11h0.8v0.1L95.6,11L95.6,11z
		 M95.6,11.3h0.8v0.1L95.6,11.3L95.6,11.3z M95.6,11.6h0.8v0.1L95.6,11.6L95.6,11.6z M95.6,11.9h0.8V12L95.6,11.9L95.6,11.9z
		 M95.6,12.3h0.8v0.1L95.6,12.3L95.6,12.3z M95.6,12.6h0.8v0.1L95.6,12.6L95.6,12.6z M95.6,12.9h0.8V13L95.6,12.9L95.6,12.9z
		 M95.6,13.2h0.8v0.1L95.6,13.2L95.6,13.2z"/>
	<path class="st0" d="M98.8,8.1h2.5l3.7,5.7V8.1h2.3v9.6h-2.4l-3.7-5.7v5.7h-2.4V8.1z M100.5,17.3v-6.8h0.2l4.5,6.8h1.5V8.6h-1.2
		v6.7h-0.3l-4.4-6.7h-1.5v8.7H100.5z M99.8,8.8h1l0.1,0.1L99.8,8.8L99.8,8.8z M100,9.1h1l0.1,0.1L100,9.1L100,9.1z M100.2,9.4h1
		l0.1,0.1L100.2,9.4L100.2,9.4z M100.4,9.7h1l0.1,0.1L100.4,9.7L100.4,9.7z M100.6,10.1h1l0.1,0.1L100.6,10.1L100.6,10.1z
		 M100.9,10.4h1l0.1,0.1L100.9,10.4L100.9,10.4z M101.1,10.7h1l0.1,0.1L101.1,10.7L101.1,10.7z M101.3,11h1l0.1,0.1L101.3,11
		L101.3,11z M101.5,11.3h1l0.1,0.1L101.5,11.3L101.5,11.3z M101.7,11.7h1l0.1,0.1L101.7,11.7L101.7,11.7z M101.9,12h1l0.1,0.1
		L101.9,12L101.9,12z M102.1,12.3h1l0.1,0.1L102.1,12.3L102.1,12.3z M102.3,12.6h1l0.1,0.1L102.3,12.6L102.3,12.6z M102.5,12.9h1
		l0.1,0.1L102.5,12.9L102.5,12.9z M102.8,13.3h1l0.1,0.1L102.8,13.3L102.8,13.3z M103,13.6h1l0.1,0.1L103,13.6L103,13.6z
		 M103.2,13.9h1l0.1,0.1L103.2,13.9L103.2,13.9z M103.4,14.2h1l0.1,0.1L103.4,14.2L103.4,14.2z M104.6,14.5L104.6,14.5l-0.9,0.1
		l0-0.1H104.6z M104.8,14.9L104.8,14.9l-0.9,0.1l0-0.1H104.8z M105,15.2L105,15.2l-0.9,0.1l0-0.1H105z M105.2,15.5L105.2,15.5
		l-0.9,0.1l0-0.1H105.2z M105.5,15.8L105.5,15.8l-1,0.1l0-0.1H105.5z M105.7,16.1L105.7,16.1l-1,0.1l0-0.1H105.7z M105.9,16.5
		L105.9,16.5l-1,0.1l0-0.1H105.9z M106.2,16.8L106.2,16.8l-1,0.1l0-0.1H106.2z M106.4,17.1L106.4,17.1l-1.1,0.1l0-0.1H106.4z"/>
	<path class="st0" d="M108.8,8.1h2.4v4.3h0l2.8-4.3h2.6l-3.3,4.6l3.5,5h-2.6l-2.9-4.7h0v4.7h-2.4V8.1z M110.6,17.3V8.6h-1.2v8.7
		H110.6z M114.5,17.3h1.3l-3.1-4.6l2.9-4.1h-1.3l-2.8,4.1L114.5,17.3z M111.9,12.6h0.7l-0.1,0.1L111.9,12.6L111.9,12.6z M111.9,12.9
		h0.7l0.1,0.1L111.9,12.9L111.9,12.9z M112.1,12.3h0.7l-0.1,0.1L112.1,12.3L112.1,12.3z M112.1,13.2h0.8l0,0.1L112.1,13.2
		L112.1,13.2z M112.3,12h0.8L113,12L112.3,12L112.3,12z M112.3,13.5h0.8l0.1,0.1L112.3,13.5L112.3,13.5z M112.5,11.6h0.8l-0.1,0.1
		L112.5,11.6L112.5,11.6z M112.5,13.9h0.8l0.1,0.1L112.5,13.9L112.5,13.9z M112.7,11.3h0.8l-0.1,0.1L112.7,11.3L112.7,11.3z
		 M112.7,14.2h0.8l0.1,0.1L112.7,14.2L112.7,14.2z M113,11h0.8l-0.1,0.1L113,11L113,11z M112.9,14.5h0.8l0.1,0.1L112.9,14.5
		L112.9,14.5z M113.2,10.7h0.8l-0.1,0.1L113.2,10.7L113.2,10.7z M113.9,14.8L113.9,14.8l-0.7,0.1l0-0.1H113.9z M113.4,10.4h0.8
		l-0.1,0.1L113.4,10.4L113.4,10.4z M114.2,15.1L114.2,15.1l-0.8,0.1l0-0.1H114.2z M113.6,10h0.8l-0.1,0.1L113.6,10L113.6,10z
		 M114.4,15.5L114.4,15.5l-0.8,0.1l0-0.1H114.4z M113.8,9.7h0.8l-0.1,0.1L113.8,9.7L113.8,9.7z M114.6,15.8L114.6,15.8l-0.8,0.1
		l0-0.1H114.6z M114,9.4h0.8l-0.1,0.1L114,9.4L114,9.4z M114.8,16.1L114.8,16.1l-0.8,0.1l0-0.1H114.8z M114.2,9.1h0.8L115,9.2
		L114.2,9.1L114.2,9.1z M115,16.4L115,16.4l-0.8,0.1l0-0.1H115z M115.2,16.7L115.2,16.7l-0.8,0.1l0-0.1H115.2z M114.4,8.8h0.9
		l-0.1,0.1L114.4,8.8L114.4,8.8z M115.5,17L115.5,17l-0.8,0.1l0-0.1H115.5z"/>
</g>
</svg>
