<?xml version="1.0" encoding="utf-8"?>
<!-- Generator: Adobe Illustrator 21.1.0, SVG Export Plug-In . SVG Version: 6.00 Build 0)  -->
<svg version="1.1" id="Layer_1" xmlns="http://www.w3.org/2000/svg" xmlns:xlink="http://www.w3.org/1999/xlink" x="0px" y="0px"
	 viewBox="0 0 1200 116" style="enable-background:new 0 0 1200 116;" xml:space="preserve">
<style type="text/css">
	.st0{fill:#FFFFFF;}
</style>
<g>
	<path class="st0" d="M214.4,23v72h-15.5l-26.5-49.1V95h-13.5V23h15.5l26.5,49.1V23H214.4z M170.4,93V39.8h0.8L199.9,93h12.5V25
		h-9.5v52.1h-1.4L173.4,25h-12.5v68H170.4z M206.6,87.2h-3.4l-32.1-58.4h-6.4v60.4h2V30.8h3.4l32.1,58.4h6.4V28.8h-2V87.2z"/>
	<path class="st0" d="M230.2,23h14.4v72h-14.4V23z M242.6,93V25h-10.4v68H242.6z M238.4,89.2V28.8h-2v60.4H238.4z"/>
	<path class="st0" d="M296.4,39.6c0-2.2-1.2-3.4-3.4-3.4h-16.5c-2.2,0-3.4,1.2-3.4,3.4v38.8c0,2.2,1.2,3.4,3.4,3.4H293
		c2.2,0,3.4-1.2,3.4-3.4V67.7h-13.2v-13h27.6v26.5c0,8.4-5.8,14.2-14.2,14.2h-23.7c-8.4,0-14.2-5.8-14.2-14.2V36.8
		c0-8.4,5.8-14.2,14.2-14.2h23.7c8.4,0,14.2,5.8,14.2,14.2v9.4h-14.4V39.6z M273.1,24.6c-7.3,0-12.4,4.9-12.4,12.2v44.4
		c0,7.3,4.9,12.2,12.2,12.2h23.7c7.3,0,12.2-4.9,12.2-12.2V56.7h-23.6v9h13.2v12.7c0,3.4-2,5.4-5.4,5.4h-16.5c-3.4,0-5.4-2-5.4-5.4
		V39.6c0-3.4,2-5.4,5.4-5.4H293c3.4,0,5.4,2,5.4,5.4v4.6h10.4v-7.4c0-7.3-4.9-12.2-12.2-12.2H273.1z M294.8,30.4
		c5,0,7.8,2.8,7.8,7.8v2.2h2v-2.2c0-6.2-3.6-9.8-9.8-9.8h-20.1c-6.2,0-9.8,3.6-9.8,9.8v41.6c0,6.2,3.6,9.8,9.8,9.8h20.1
		c6.2,0,9.8-3.6,9.8-9.8V60.2h-15.2v2h13.2v17.6c0,5-2.8,7.8-7.8,7.8h-20.1c-5,0-7.8-2.8-7.8-7.8V38.2c0-5,2.8-7.8,7.8-7.8H294.8z"
		/>
	<path class="st0" d="M324.6,23H339v28.4h24.8V23h14.4v72h-14.4V65H339v30h-14.4V23z M337,93V63h28.8v30h10.4V25h-10.4v28.4H337V25
		h-10.4v68H337z M370,57.2h-37.2V28.8h-2v60.4h2v-30H370v30h2V28.8h-2V57.2z"/>
	<path class="st0" d="M421.8,36.4V95h-14.4V36.4h-18.8V23h52v13.4H421.8z M409.4,34.4V93h10.4V34.4h18.8V25h-48v9.4H409.4z
		 M413.6,30.7v58.5h2V30.7h18.8v-2h-39.6v2H413.6z"/>
	<path class="st0" d="M483.6,39.6c0-2.2-1.2-3.4-3.4-3.4h-14.4c-2.2,0-3.4,1.2-3.4,3.4v6.8c0,2.2,1.2,2.9,3.4,3.4l18.6,4
		c7.8,1.7,14.4,6.4,14.4,14.4v13c0,8.4-5.8,14.2-14.2,14.2h-22.4c-8.4,0-14.2-5.8-14.2-14.2V72h14v6.4c0,2.2,1.2,3.4,3.4,3.4H481
		c2.2,0,3.4-1.2,3.4-3.4v-7.6c0-2.2-1.2-2.9-3.4-3.4l-18.6-4C454.6,61.7,448,57,448,49V36.8c0-8.4,5.8-14.2,14.2-14.2h21.2
		c8.4,0,14.2,5.8,14.2,14.2v8.4h-14V39.6z M450,81.2c0,7.3,4.9,12.2,12.2,12.2h22.4c7.3,0,12.2-4.9,12.2-12.2v-13
		c0-6.5-5.3-10.9-12.2-12.4l-18.9-4c-3.5-0.7-5.3-2.1-5.3-5.4v-6.8c0-3.4,2-5.4,5.4-5.4h14.4c3.4,0,5.4,2,5.4,5.4v3.6h10v-6.4
		c0-7.3-4.9-12.2-12.2-12.2h-21.2c-7.3,0-12.2,4.9-12.2,12.2V49c0,6.5,5.7,11,12.6,12.5l18.2,3.9c3.5,0.7,5.6,2.1,5.6,5.4v7.6
		c0,3.4-2,5.4-5.4,5.4h-15.6c-3.4,0-5.4-2-5.4-5.4V74h-10V81.2z M492.6,69.5c0-4.9-2-7.5-6.7-8.7l-23.6-6.1c-4.5-1.2-6.1-3.1-6.1-7
		v-9.5c0-5,2.8-7.8,7.8-7.8h17.8c5,0,7.8,2.8,7.8,7.8v1.2h2v-1.2c0-6.2-3.6-9.8-9.8-9.8H464c-6.2,0-9.8,3.6-9.8,9.8v9.5
		c0,5.6,2.5,7.5,8.1,9l23.6,6.1c3.6,0.9,4.7,3.4,4.7,6.7v10.3c0,5-2.8,7.8-7.8,7.8h-19c-5,0-7.8-2.8-7.8-7.8v-2h-2v2
		c0,6.2,3.6,9.8,9.8,9.8h19c6.2,0,9.8-3.6,9.8-9.8V69.5z"/>
	<path class="st0" d="M575.5,22.6c8.4,0,14.2,5.8,14.2,14.2v44.4c0,8.4-5.8,14.2-14.2,14.2h-24.1c-8.4,0-14.2-5.8-14.2-14.2V36.8
		c0-8.4,5.8-14.2,14.2-14.2H575.5z M551.6,24.6c-7.3,0-12.4,4.9-12.4,12.2v44.4c0,7.3,4.9,12.2,12.2,12.2h24.1
		c7.3,0,12.2-4.9,12.2-12.2V36.8c0-7.3-4.9-12.2-12.2-12.2H551.6z M583.5,38.2c0-6.2-3.6-9.8-9.8-9.8h-20.5c-6.2,0-9.8,3.6-9.8,9.8
		v41.6c0,6.2,3.6,9.8,9.8,9.8h20.5c6.2,0,9.8-3.6,9.8-9.8V38.2z M573.7,30.4c5,0,7.8,2.8,7.8,7.8v41.6c0,5-2.8,7.8-7.8,7.8h-20.5
		c-5,0-7.8-2.8-7.8-7.8V38.2c0-5,2.8-7.8,7.8-7.8H573.7z M549.6,39.6c0-3.4,2-5.4,5.4-5.4h16.9c3.4,0,5.4,2,5.4,5.4v38.8
		c0,3.4-2,5.4-5.4,5.4H555c-3.4,0-5.4-2-5.4-5.4V39.6z M575.3,39.6c0-2.2-1.2-3.4-3.4-3.4H555c-2.2,0-3.4,1.2-3.4,3.4v38.8
		c0,2.2,1.2,3.4,3.4,3.4h16.9c2.2,0,3.4-1.2,3.4-3.4V39.6z"/>
	<path class="st0" d="M654.1,81.2c0,8.4-5.8,14.2-14.2,14.2h-23c-8.4,0-14.2-5.8-14.2-14.2V23h14.4v55.4c0,2.2,1.2,3.4,3.4,3.4h15.8
		c2.2,0,3.4-1.2,3.4-3.4V23h14.4V81.2z M604.7,81.2c0,7.3,4.9,12.2,12.2,12.2h23c7.3,0,12.2-4.9,12.2-12.2V25h-10.4v53.4
		c0,3.4-2,5.4-5.4,5.4h-15.8c-3.4,0-5.4-2-5.4-5.4V25h-10.4V81.2z M645.9,79.8c0,5-2.8,7.8-7.8,7.8h-19.4c-5,0-7.8-2.8-7.8-7.8v-51
		h-2v51c0,6.2,3.6,9.8,9.8,9.8h19.4c6.2,0,9.8-3.6,9.8-9.8v-51h-2V79.8z"/>
	<path class="st0" d="M696.6,36.4V95h-14.4V36.4h-18.8V23h52v13.4H696.6z M684.2,34.4V93h10.4V34.4h18.8V25h-48v9.4H684.2z
		 M688.4,30.7v58.5h2V30.7h18.8v-2h-39.6v2H688.4z"/>
	<path class="st0" d="M756.6,95h-14.9l23.2-72h16.8l23.2,72h-15.5l-4.7-16.2h-23.3L756.6,95z M760,76.8h26.1l4.7,16.2h11.5l-21.9-68
		h-14.2l-21.9,68h10.9L760,76.8z M796.4,89.2l-18.5-60.4h-9.2l-18.8,60.4h1.9l5-16.2h32.8l4.9,16.2H796.4z M769.9,30.8h6.8L789,71
		h-31.6L769.9,30.8z M783.3,67.2l-9.4-32.4h-1.4l-9.6,32.4H783.3z M773.2,38.8l7.6,26.4h-15.4L773.2,38.8z"/>
	<path class="st0" d="M835.6,36.4V95h-14.4V36.4h-18.8V23h52v13.4H835.6z M823.2,34.4V93h10.4V34.4h18.8V25h-48v9.4H823.2z
		 M827.4,30.7v58.5h2V30.7h18.8v-2h-39.6v2H827.4z"/>
	<path class="st0" d="M903.2,23v58.4h30.2V95h-44.6V23H903.2z M931.4,93v-9.6h-30.2V25h-10.4v68H931.4z M927.2,89.2v-2H897V28.8h-2
		v60.4H927.2z"/>
	<path class="st0" d="M970.3,68.3h-11.6V95h-14.4V23H981c8.4,0,14.2,5.8,14.2,14.2v16.9c0,6.8-3.8,11.9-9.8,13.6l12,27.3h-15.5
		L970.3,68.3z M956.7,93V66.3h14.8L983.1,93h11.3l-11.7-26.7c6.4-0.7,10.5-5.4,10.5-12.2V37.2c0-7.3-4.9-12.2-12.2-12.2h-34.7v68
		H956.7z M989,38.6c0-6.2-3.6-9.8-9.8-9.8h-28.7v60.4h2V62.6h22l11.6,26.6h2.1l-11.6-26.6h2.6c6.2,0,9.8-3.6,9.8-9.8V38.6z
		 M979.2,30.8c5,0,7.8,2.8,7.8,7.8v14.2c0,5-2.8,7.8-7.8,7.8h-26.7V30.8H979.2z M977.4,34.6c3.4,0,5.4,2.1,5.4,5.4v11.5
		c0,3.4-2,5.4-5.4,5.4h-20.7V34.6H977.4z M980.8,40c0-2.2-1.2-3.4-3.4-3.4h-18.7v18.3h18.7c2.2,0,3.4-1.2,3.4-3.4V40z"/>
	<path class="st0" d="M1040.5,95h-16.8l-21.9-72h16.4l13.9,54.7l14.3-54.7h16L1040.5,95z M1039.1,93l20.7-68h-11.9l-14.8,56.4h-2
		L1016.7,25h-12.3l20.7,68H1039.1z M1051.8,28.8l-16.6,58.4h-6.2l-16.4-58.4h-2l17,60.4h9l17.2-60.4H1051.8z"/>
</g>
<polygon class="st0" points="1188,35 1080,35 1084,23 1192,23 "/>
<polygon class="st0" points="1170,95 1062,95 1066,83 1174,83 "/>
<polygon class="st0" points="1180,63 1072,63 1076,51 1184,51 "/>
<polygon class="st0" points="14,35 122,35 118,23 10,23 "/>
<polygon class="st0" points="32,95 140,95 136,83 28,83 "/>
<polygon class="st0" points="22,63 130,63 126,51 18,51 "/>
</svg>
